<?xml version="1.0" encoding="UTF-8" standalone="no"?>
<!-- Created with Inkscape (http://www.inkscape.org/) -->

<svg
   xmlns:dc="http://purl.org/dc/elements/1.1/"
   xmlns:cc="http://creativecommons.org/ns#"
   xmlns:rdf="http://www.w3.org/1999/02/22-rdf-syntax-ns#"
   xmlns:svg="http://www.w3.org/2000/svg"
   xmlns="http://www.w3.org/2000/svg"
   xmlns:sodipodi="http://sodipodi.sourceforge.net/DTD/sodipodi-0.dtd"
   xmlns:inkscape="http://www.inkscape.org/namespaces/inkscape"
   version="1.1"
   id="svg3840"
   width="659.99426"
   height="699.42188"
   viewBox="0 0 659.99426 699.42188"
   sodipodi:docname="Xmas_Tree.svg"
   inkscape:version="0.92.5 (2060ec1f9f, 2020-04-08)">
  <metadata
     id="metadata3846">
    <rdf:RDF>
      <cc:Work
         rdf:about="">
        <dc:format>image/svg+xml</dc:format>
        <dc:type
           rdf:resource="http://purl.org/dc/dcmitype/StillImage" />
        <dc:title></dc:title>
      </cc:Work>
    </rdf:RDF>
  </metadata>
  <defs
     id="defs3844" />
  <sodipodi:namedview
     pagecolor="#ffffff"
     bordercolor="#666666"
     borderopacity="1"
     objecttolerance="10"
     gridtolerance="10"
     guidetolerance="10"
     inkscape:pageopacity="0"
     inkscape:pageshadow="2"
     inkscape:window-width="1858"
     inkscape:window-height="953"
     id="namedview3842"
     showgrid="false"
     inkscape:zoom="0.64583333"
     inkscape:cx="259.63847"
     inkscape:cy="354.98474"
     inkscape:window-x="56"
     inkscape:window-y="27"
     inkscape:window-maximized="1"
     inkscape:current-layer="svg3840">
    <inkscape:grid
       type="xygrid"
       id="grid4657"
       originx="-189.92605"
       originy="-245.01527" />
  </sodipodi:namedview>
  <path
     style="fill:none;stroke:#000000;stroke-width:1;stroke-miterlimit:4;stroke-dasharray:none;stroke-opacity:1"
     d="m 309.93142,698.71596 c -15.21997,-1.43638 -31.04292,-4.89984 -37.9846,-8.31513 l -3.87037,-1.90416 1.14606,-3.44188 c 2.84733,-8.55123 6.69291,-42.4926 7.17565,-63.32985 0.26476,-11.43608 -0.31113,-12.19578 -6.38337,-8.41961 -7.14968,4.446 -19.29116,9.12918 -27.81032,10.727 -19.46396,3.64963 -36.88832,-1.09072 -58.53516,-15.92522 -4.21769,-2.89033 -7.93516,-5.10622 -8.26093,-4.92408 -0.32624,0.18191 -4.3011,1.2051 -8.83315,2.27356 -9.71829,2.29055 -25.85501,3.28447 -32.48082,2.0003 -14.44457,-2.80038 -21.48297,-7.5423 -33.01644,-22.24615 -1.07336,-1.36841 -1.309949,-1.35911 -8.572599,0.32583 -10.41108,2.41502 -26.77242,2.46201 -37.26742,0.10654 -23.89567,-5.36341 -43.90235,-19.99575 -52.5207696,-38.41284 -1.22378,-2.61511 -2.22147998,-5.15619 -2.21713998,-5.64648 0.005,-0.49033 3.65918998,-1.95331 8.12125998,-3.25088 27.2933696,-7.93661 56.5483096,-21.32232 84.7442296,-38.77567 13.128979,-8.12643 15.376349,-9.78132 13.912779,-10.24446 -1.97871,-0.62594 -13.837629,-8.94335 -19.536679,-13.70192 -5.25031,-4.38391 -16.4491,-16.26855 -16.4491,-17.45659 0,-0.29179 4.21683,-1.79448 9.37059,-3.33846 30.122699,-9.0255 73.645569,-36.58253 87.968079,-45.34852 14.32266,-8.76608 2.28515,-0.11787 1.96658,-1.4145 -0.31876,-1.29662 1.86429,1.27988 -6.13147,-1.3262 -7.99536,-2.60606 -27.87643,-9.56199 -40.09997,-17.83645 -6.28669,-4.25547 -18.09006,-14.04607 -18.09006,-15.00531 0,-0.35639 2.5302,-1.34599 5.62243,-2.19902 22.56935,-6.2254 47.52403,-18.0304 68.78038,-32.53712 7.47614,-5.10226 20.90769,-15.33768 23.35357,-17.7965 1.52285,-1.53108 1.51549,-1.56572 -0.41641,-1.90395 -15.14509,-2.65312 -25.06612,-5.9591 -36.12287,-12.03767 -8.32728,-4.5779 -19.15719,-12.48524 -18.17661,-13.27112 0.37912,-0.30396 4.99981,-1.86486 10.26801,-3.4691 18.15548,-5.52783 38.533,-15.82143 54.97444,-27.76963 9.61145,-6.98455 22.39877,-17.67515 27.46682,-22.96298 l 4.1741,-4.35543 -7.82355,-1.6342 c -10.01873,-2.09259 -17.52065,-4.72355 -31.39758,-11.012 l -11.16105,-5.05776 9.64755,-2.82769 c 12.54603,-3.67724 22.008,-7.80736 32.59251,-14.22628 21.70742,-13.16427 42.44766,-33.87024 60.59049,-60.4909 9.57663,-14.05126 12.14412,-18.61961 10.46415,-18.61961 -1.57778,0 -1.72972,1.55667 1.61353,-16.54865 1.56624,-8.48056 2.75129,-15.50622 2.63368,-15.61258 -0.11777,-0.10628 -4.31051,1.77184 -9.31756,4.17358 -7.07258,3.39248 -9.14775,4.10427 -9.30081,3.18997 -0.10835,-0.64718 1.22092,-8.53349 2.95404,-17.52515 l 3.15059,-16.34846 -13.99841,-12.63651 c -13.56919,-12.24896 -13.92783,-12.65213 -11.69981,-13.1466 1.26427,-0.28054 9.42029,-1.40231 18.12485,-2.49282 8.70403,-1.09051 16.57874,-2.25669 17.49891,-2.5916 1.11743,-0.40678 4.41242,-5.76554 9.92539,-16.14198 C 325.23612,7.48988 329.18762,0.5 329.47855,0.5 c 0.29066,0 4.41216,7.12207 9.15916,15.82684 6.52398,11.96387 9.05485,15.91046 10.36929,16.16943 0.95637,0.18846 9.59196,1.3785 19.19009,2.64462 9.59797,1.26609 17.56861,2.40839 17.71246,2.53845 0.14404,0.13004 -6.01908,5.85948 -13.69578,12.73204 l -13.95778,12.49561 3.25622,17.35673 c 1.79091,9.54621 3.09987,17.474 2.90862,17.61726 -0.19143,0.14327 -4.44455,-1.71542 -9.45135,-4.13055 -5.00721,-2.41506 -9.17555,-4.31072 -9.26348,-4.21252 -0.0874,0.0983 1.09632,6.95443 2.63158,15.23617 1.53523,8.28166 2.79896,15.48113 2.80813,15.99874 0.01,0.54781 -1.03146,0.94105 -2.49155,0.94105 h -2.5079 l 3.29816,5.92942 c 7.80073,14.02332 19.53495,30.75492 29.88623,42.61372 6.9335,7.94352 23.83247,22.77365 31.71513,27.83291 13.39755,8.59891 27.65598,14.18122 44.44303,17.40029 3.55049,0.68078 6.45539,1.46138 6.45539,1.73453 0,0.27327 -4.40572,2.59238 -9.79054,5.15374 -11.28691,5.36846 -24.36871,9.51624 -33.93917,10.7611 -3.66497,0.47662 -8.16285,1.10174 -9.99532,1.38907 l -3.33172,0.52245 13.32704,12.05328 c 27.63033,24.98942 53.28943,38.57761 84.54404,44.77125 4.81026,0.95332 9.04868,1.97028 9.4187,2.25995 0.67647,0.52943 -21.68472,11.97985 -35.65643,18.25851 -8.14177,3.65864 -18.65597,7.07177 -24.07204,7.81398 -5.97036,0.81799 -6.01323,1.17847 -0.67425,5.64635 26.49886,22.17514 62.95016,39.90614 93.67258,45.56557 4.00851,0.73847 7.28828,1.57076 7.28828,1.84954 0,0.94623 -18.14391,15.11265 -25.12399,19.61598 -9.7773,6.30821 -20.30692,11.61232 -30.596,15.41182 -4.85845,1.79404 -9.27982,3.26518 -9.8253,3.26887 -2.76033,0.0187 -1.33271,1.85134 4.65006,5.96815 12.07608,8.309 27.00626,16.65657 40.48803,22.63712 16.49477,7.31759 26.33264,10.62182 42.81667,14.38184 7.05679,1.60958 12.96454,3.04731 13.12821,3.19527 0.67108,0.60651 -21.48798,19.35956 -27.24349,23.05613 -3.41655,2.19388 -9.53249,5.43259 -13.59122,7.19721 l -7.37928,3.2075 4.46404,2.95994 c 12.57391,8.3375 28.61784,17.21148 43.19601,23.89291 20.07811,9.20172 35.97834,14.59425 57.60346,19.53656 l 13.87377,3.17044 -4.23001,6.73736 c -12.57054,20.02165 -14.43504,22.55436 -21.01871,28.55098 -7.34418,6.68947 -13.67899,10.04965 -22.90606,12.14941 -8.05999,1.83443 -22.98499,1.11024 -32.90132,-1.59629 -4.12313,-1.12555 -8.05883,-2.17269 -8.74599,-2.32672 -0.75576,-0.16941 -2.65761,1.4261 -4.81327,4.03826 -5.74399,6.96083 -15.90806,15.80986 -23.22742,20.22298 -12.73132,7.67604 -24.01738,10.55066 -38.59503,9.82942 -10.15273,-0.5023 -18.11088,-2.22616 -30.51358,-6.609 l -8.88292,-3.13948 -2.83014,3.07955 c -6.77049,7.36771 -22.22671,16.47952 -32.65448,19.25175 -16.72881,4.44689 -35.80934,2.42118 -55.49029,-5.89188 -7.21977,-3.04927 -7.89767,-3.20668 -7.89767,-1.83111 0,5.75296 7.30672,40.79248 12.20385,58.52319 2.35176,8.51535 2.75959,10.94399 1.91683,11.41519 -1.30249,0.72742 -12.96306,2.64058 -25.36538,4.16104 -9.0334,1.1076 -36.8247,1.9943 -43.31333,1.38204 z"
     id="path3850"
     inkscape:connector-curvature="0"
     sodipodi:nodetypes="ccccsssscsssssscsscssszzzsscsscsscsccsscssssscscscscscssscscscsccsscscsssssssccsccscssssscsssccscssscsssccsssscsssssccc" />
</svg>
