  0
SECTION
  2
HEADER
  9
$ACADVER
  1
AC1014
  9
$HANDSEED
  5
FFFF
  9
$MEASUREMENT
 70
     1
  0
ENDSEC
  0
SECTION
  2
TABLES
  0
TABLE
  2
VPORT
  5
8
330
0
100
AcDbSymbolTable
 70
     4
  0
VPORT
  5
2E
330
8
100
AcDbSymbolTableRecord
100
AcDbViewportTableRecord
  2
*ACTIVE
 70
     0
 10
0.0
 20
0.0
 11
1.0
 21
1.0
 12
210.0
 22
148.5
 13
0.0
 23
0.0
 14
10.0
 24
10.0
 15
10.0
 25
10.0
 16
0.0
 26
0.0
 36
1.0
 17
0.0
 27
0.0
 37
0.0
 40
341.0
 41
1.24
 42
50.0
 43
0.0
 44
0.0
 50
0.0
 51
0.0
 71
     0
 72
   100
 73
     1
 74
     3
 75
     0
 76
     0
 77
     0
 78
     0
  0
ENDTAB
  0
TABLE
  2
LTYPE
  5
5
330
0
100
AcDbSymbolTable
 70
     1
  0
LTYPE
  5
14
330
5
100
AcDbSymbolTableRecord
100
AcDbLinetypeTableRecord
  2
BYBLOCK
 70
     0
  3

 72
    65
 73
     0
 40
0.0
  0
LTYPE
  5
15
330
5
100
AcDbSymbolTableRecord
100
AcDbLinetypeTableRecord
  2
BYLAYER
 70
     0
  3

 72
    65
 73
     0
 40
0.0
  0
LTYPE
  5
16
330
5
100
AcDbSymbolTableRecord
100
AcDbLinetypeTableRecord
  2
CONTINUOUS
 70
     0
  3
Solid line
 72
    65
 73
     0
 40
0.0
  0
ENDTAB
  0
TABLE
  2
LAYER
  5
2
100
AcDbSymbolTable
 70
1
  0
LAYER
  5
50
100
AcDbSymbolTableRecord
100
AcDbLayerTableRecord
  2
0
 70
0
  6
CONTINUOUS
  0
ENDTAB
  0
TABLE
  2
STYLE
  5
3
330
0
100
AcDbSymbolTable
 70
     1
  0
STYLE
  5
11
330
3
100
AcDbSymbolTableRecord
100
AcDbTextStyleTableRecord
  2
STANDARD
 70
     0
 40
0.0
 41
1.0
 50
0.0
 71
     0
 42
2.5
  3
txt
  4

  0
ENDTAB
  0
TABLE
  2
VIEW
  5
6
330
0
100
AcDbSymbolTable
 70
     0
  0
ENDTAB
  0
TABLE
  2
UCS
  5
7
330
0
100
AcDbSymbolTable
 70
     0
  0
ENDTAB
  0
TABLE
  2
APPID
  5
9
330
0
100
AcDbSymbolTable
 70
     2
  0
APPID
  5
12
330
9
100
AcDbSymbolTableRecord
100
AcDbRegAppTableRecord
  2
ACAD
 70
     0
  0
ENDTAB
  0
TABLE
  2
DIMSTYLE
  5
A
330
0
100
AcDbSymbolTable
 70
     1
  0
DIMSTYLE
105
27
330
A
100
AcDbSymbolTableRecord
100
AcDbDimStyleTableRecord
  2
ISO-25
 70
     0
  3

  4

  5

  6

  7

 40
1.0
 41
2.5
 42
0.625
 43
3.75
 44
1.25
 45
0.0
 46
0.0
 47
0.0
 48
0.0
140
2.5
141
2.5
142
0.0
143
0.03937007874016
144
1.0
145
0.0
146
1.0
147
0.625
 71
     0
 72
     0
 73
     0
 74
     0
 75
     0
 76
     0
 77
     1
 78
     8
170
     0
171
     3
172
     1
173
     0
174
     0
175
     0
176
     0
177
     0
178
     0
270
     2
271
     2
272
     2
273
     2
274
     3
340
11
275
     0
280
     0
281
     0
282
     0
283
     0
284
     8
285
     0
286
     0
287
     3
288
     0
  0
ENDTAB
  0
TABLE
  2
BLOCK_RECORD
  5
1
330
0
100
AcDbSymbolTable
 70
     1
  0
BLOCK_RECORD
  5
1F
330
1
100
AcDbSymbolTableRecord
100
AcDbBlockTableRecord
  2
*MODEL_SPACE
  0
BLOCK_RECORD
  5
1B
330
1
100
AcDbSymbolTableRecord
100
AcDbBlockTableRecord
  2
*PAPER_SPACE
  0
ENDTAB
  0
ENDSEC
  0
SECTION
  2
BLOCKS
  0
BLOCK
  5
20
330
1F
100
AcDbEntity
  8
0
100
AcDbBlockBegin
  2
*MODEL_SPACE
 70
     0
 10
0.0
 20
0.0
 30
0.0
  3
*MODEL_SPACE
  1

  0
ENDBLK
  5
21
330
1F
100
AcDbEntity
  8
0
100
AcDbBlockEnd
  0
BLOCK
  5
1C
330
1B
100
AcDbEntity
 67
     1
  8
0
100
AcDbBlockBegin
  2
*PAPER_SPACE
  1

  0
ENDBLK
  5
1D
330
1B
100
AcDbEntity
 67
     1
  8
0
100
AcDbBlockEnd
  0
ENDSEC
  0
SECTION
  2
ENTITIES
  0
SPLINE
  5
100
100
AcDbEntity
  8
0
 62
7
100
AcDbSpline
 70
8
 71
3
 72
8
 73
4
 74
0
 40
0
 40
0
 40
0
 40
0
 40
1
 40
1
 40
1
 40
1
 10
82.002688
 20
0.186775
 30
0.0
 10
77.975738
 20
0.566817
 30
0.0
 10
73.789249
 20
1.483191
 30
0.0
 10
71.952596
 20
2.386819
 30
0.0
  0
SPLINE
  5
101
100
AcDbEntity
  8
0
 62
7
100
AcDbSpline
 70
8
 71
3
 72
8
 73
4
 74
0
 40
0
 40
0
 40
0
 40
0
 40
1
 40
1
 40
1
 40
1
 10
71.231789
 20
3.801293
 30
0.0
 10
71.985145
 20
6.063806
 30
0.0
 10
73.002622
 20
15.044126
 30
0.0
 10
73.130347
 20
20.557315
 30
0.0
  0
SPLINE
  5
102
100
AcDbEntity
  8
0
 62
7
100
AcDbSpline
 70
8
 71
3
 72
8
 73
4
 74
0
 40
0
 40
0
 40
0
 40
0
 40
1
 40
1
 40
1
 40
1
 10
73.130347
 20
20.557315
 30
0.0
 10
73.200398
 20
23.583112
 30
0.0
 10
73.048027
 20
23.784115
 30
0.0
 10
71.441413
 20
22.785004
 30
0.0
  0
SPLINE
  5
103
100
AcDbEntity
  8
0
 62
7
100
AcDbSpline
 70
8
 71
3
 72
8
 73
4
 74
0
 40
0
 40
0
 40
0
 40
0
 40
1
 40
1
 40
1
 40
1
 10
71.441413
 20
22.785004
 30
0.0
 10
69.549727
 20
21.608666
 30
0.0
 10
66.337294
 20
20.369575
 30
0.0
 10
64.083266
 20
19.946818
 30
0.0
  0
SPLINE
  5
104
100
AcDbEntity
  8
0
 62
7
100
AcDbSpline
 70
8
 71
3
 72
8
 73
4
 74
0
 40
0
 40
0
 40
0
 40
0
 40
1
 40
1
 40
1
 40
1
 10
64.083266
 20
19.946818
 30
0.0
 10
58.933427
 20
18.981187
 30
0.0
 10
54.323231
 20
20.235405
 30
0.0
 10
48.595838
 20
24.160366
 30
0.0
  0
SPLINE
  5
105
100
AcDbEntity
  8
0
 62
7
100
AcDbSpline
 70
8
 71
3
 72
8
 73
4
 74
0
 40
0
 40
0
 40
0
 40
0
 40
1
 40
1
 40
1
 40
1
 10
48.595838
 20
24.160366
 30
0.0
 10
47.479908
 20
24.925099
 30
0.0
 10
46.496327
 20
25.511387
 30
0.0
 10
46.410134
 20
25.463196
 30
0.0
  0
SPLINE
  5
106
100
AcDbEntity
  8
0
 62
7
100
AcDbSpline
 70
8
 71
3
 72
8
 73
4
 74
0
 40
0
 40
0
 40
0
 40
0
 40
1
 40
1
 40
1
 40
1
 10
46.410134
 20
25.463196
 30
0.0
 10
46.323816
 20
25.415065
 30
0.0
 10
45.272135
 20
25.144346
 30
0.0
 10
44.073030
 20
24.861650
 30
0.0
  0
SPLINE
  5
107
100
AcDbEntity
  8
0
 62
7
100
AcDbSpline
 70
8
 71
3
 72
8
 73
4
 74
0
 40
0
 40
0
 40
0
 40
0
 40
1
 40
1
 40
1
 40
1
 10
44.073030
 20
24.861650
 30
0.0
 10
41.501732
 20
24.255608
 30
0.0
 10
37.232225
 20
23.992634
 30
0.0
 10
35.479146
 20
24.332404
 30
0.0
  0
SPLINE
  5
108
100
AcDbEntity
  8
0
 62
7
100
AcDbSpline
 70
8
 71
3
 72
8
 73
4
 74
0
 40
0
 40
0
 40
0
 40
0
 40
1
 40
1
 40
1
 40
1
 10
35.479146
 20
24.332404
 30
0.0
 10
31.657354
 20
25.073337
 30
0.0
 10
29.795110
 20
26.327970
 30
0.0
 10
26.743546
 20
30.218364
 30
0.0
  0
SPLINE
  5
109
100
AcDbEntity
  8
0
 62
7
100
AcDbSpline
 70
8
 71
3
 72
8
 73
4
 74
0
 40
0
 40
0
 40
0
 40
0
 40
1
 40
1
 40
1
 40
1
 10
26.743546
 20
30.218364
 30
0.0
 10
26.459553
 20
30.580423
 30
0.0
 10
26.396956
 20
30.577962
 30
0.0
 10
24.475379
 20
30.132155
 30
0.0
  0
SPLINE
  5
10a
100
AcDbEntity
  8
0
 62
7
100
AcDbSpline
 70
8
 71
3
 72
8
 73
4
 74
0
 40
0
 40
0
 40
0
 40
0
 40
1
 40
1
 40
1
 40
1
 10
24.475379
 20
30.132155
 30
0.0
 10
21.720781
 20
29.493181
 30
0.0
 10
17.391843
 20
29.480748
 30
0.0
 10
14.615041
 20
30.103966
 30
0.0
  0
SPLINE
  5
10b
100
AcDbEntity
  8
0
 62
7
100
AcDbSpline
 70
8
 71
3
 72
8
 73
4
 74
0
 40
0
 40
0
 40
0
 40
0
 40
1
 40
1
 40
1
 40
1
 10
14.615041
 20
30.103966
 30
0.0
 10
8.292645
 20
31.523035
 30
0.0
 10
2.999211
 20
35.394508
 30
0.0
 10
0.718921
 20
40.267363
 30
0.0
  0
SPLINE
  5
10c
100
AcDbEntity
  8
0
 62
7
100
AcDbSpline
 70
8
 71
3
 72
8
 73
4
 74
0
 40
0
 40
0
 40
0
 40
0
 40
1
 40
1
 40
1
 40
1
 10
0.718921
 20
40.267363
 30
0.0
 10
0.395129
 20
40.959278
 30
0.0
 10
0.131154
 20
41.631605
 30
0.0
 10
0.132303
 20
41.761328
 30
0.0
  0
SPLINE
  5
10d
100
AcDbEntity
  8
0
 62
7
100
AcDbSpline
 70
8
 71
3
 72
8
 73
4
 74
0
 40
0
 40
0
 40
0
 40
0
 40
1
 40
1
 40
1
 40
1
 10
0.132303
 20
41.761328
 30
0.0
 10
0.133626
 20
41.891061
 30
0.0
 10
1.100463
 20
42.278141
 30
0.0
 10
2.281053
 20
42.621457
 30
0.0
  0
SPLINE
  5
10e
100
AcDbEntity
  8
0
 62
7
100
AcDbSpline
 70
8
 71
3
 72
8
 73
4
 74
0
 40
0
 40
0
 40
0
 40
0
 40
1
 40
1
 40
1
 40
1
 10
2.281053
 20
42.621457
 30
0.0
 10
9.502423
 20
44.721351
 30
0.0
 10
17.242793
 20
48.262987
 30
0.0
 10
24.702963
 20
52.880853
 30
0.0
  0
SPLINE
  5
10f
100
AcDbEntity
  8
0
 62
7
100
AcDbSpline
 70
8
 71
3
 72
8
 73
4
 74
0
 40
0
 40
0
 40
0
 40
0
 40
1
 40
1
 40
1
 40
1
 10
24.702963
 20
52.880853
 30
0.0
 10
28.176672
 20
55.030971
 30
0.0
 10
28.771289
 20
55.468827
 30
0.0
 10
28.384053
 20
55.591366
 30
0.0
  0
SPLINE
  5
110
100
AcDbEntity
  8
0
 62
7
100
AcDbSpline
 70
8
 71
3
 72
8
 73
4
 74
0
 40
0
 40
0
 40
0
 40
0
 40
1
 40
1
 40
1
 40
1
 10
28.384053
 20
55.591366
 30
0.0
 10
27.860519
 20
55.756979
 30
0.0
 10
24.722847
 20
57.957627
 30
0.0
 10
23.214973
 20
59.216666
 30
0.0
  0
SPLINE
  5
111
100
AcDbEntity
  8
0
 62
7
100
AcDbSpline
 70
8
 71
3
 72
8
 73
4
 74
0
 40
0
 40
0
 40
0
 40
0
 40
1
 40
1
 40
1
 40
1
 10
23.214973
 20
59.216666
 30
0.0
 10
21.825829
 20
60.376575
 30
0.0
 10
18.862815
 20
63.521053
 30
0.0
 10
18.862815
 20
63.835388
 30
0.0
  0
SPLINE
  5
112
100
AcDbEntity
  8
0
 62
7
100
AcDbSpline
 70
8
 71
3
 72
8
 73
4
 74
0
 40
0
 40
0
 40
0
 40
0
 40
1
 40
1
 40
1
 40
1
 10
18.862815
 20
63.835388
 30
0.0
 10
18.862815
 20
63.912591
 30
0.0
 10
19.978518
 20
64.310178
 30
0.0
 10
21.342117
 20
64.718689
 30
0.0
  0
SPLINE
  5
113
100
AcDbEntity
  8
0
 62
7
100
AcDbSpline
 70
8
 71
3
 72
8
 73
4
 74
0
 40
0
 40
0
 40
0
 40
0
 40
1
 40
1
 40
1
 40
1
 10
21.342117
 20
64.718689
 30
0.0
 10
29.312082
 20
67.106686
 30
0.0
 10
40.827508
 20
74.397817
 30
0.0
 10
44.617005
 20
76.717152
 30
0.0
  0
SPLINE
  5
114
100
AcDbEntity
  8
0
 62
7
100
AcDbSpline
 70
8
 71
3
 72
8
 73
4
 74
0
 40
0
 40
0
 40
0
 40
0
 40
1
 40
1
 40
1
 40
1
 10
44.617005
 20
76.717152
 30
0.0
 10
48.406542
 20
79.036511
 30
0.0
 10
45.221618
 20
76.748338
 30
0.0
 10
45.137329
 20
77.091405
 30
0.0
  0
SPLINE
  5
115
100
AcDbEntity
  8
0
 62
7
100
AcDbSpline
 70
8
 71
3
 72
8
 73
4
 74
0
 40
0
 40
0
 40
0
 40
0
 40
1
 40
1
 40
1
 40
1
 10
45.137329
 20
77.091405
 30
0.0
 10
45.052991
 20
77.434469
 30
0.0
 10
45.630589
 20
76.752770
 30
0.0
 10
43.515045
 20
77.442295
 30
0.0
  0
SPLINE
  5
116
100
AcDbEntity
  8
0
 62
7
100
AcDbSpline
 70
8
 71
3
 72
8
 73
4
 74
0
 40
0
 40
0
 40
0
 40
0
 40
1
 40
1
 40
1
 40
1
 10
43.515045
 20
77.442295
 30
0.0
 10
41.399606
 20
78.131816
 30
0.0
 10
36.139406
 20
79.972239
 30
0.0
 10
32.905261
 20
82.161523
 30
0.0
  0
SPLINE
  5
117
100
AcDbEntity
  8
0
 62
7
100
AcDbSpline
 70
8
 71
3
 72
8
 73
4
 74
0
 40
0
 40
0
 40
0
 40
0
 40
1
 40
1
 40
1
 40
1
 10
32.905261
 20
82.161523
 30
0.0
 10
31.241907
 20
83.287449
 30
0.0
 10
28.118932
 20
85.877879
 30
0.0
 10
28.118932
 20
86.131678
 30
0.0
  0
SPLINE
  5
118
100
AcDbEntity
  8
0
 62
7
100
AcDbSpline
 70
8
 71
3
 72
8
 73
4
 74
0
 40
0
 40
0
 40
0
 40
0
 40
1
 40
1
 40
1
 40
1
 10
28.118932
 20
86.131678
 30
0.0
 10
28.118932
 20
86.225973
 30
0.0
 10
28.788381
 20
86.487804
 30
0.0
 10
29.606534
 20
86.713502
 30
0.0
  0
SPLINE
  5
119
100
AcDbEntity
  8
0
 62
7
100
AcDbSpline
 70
8
 71
3
 72
8
 73
4
 74
0
 40
0
 40
0
 40
0
 40
0
 40
1
 40
1
 40
1
 40
1
 10
29.606534
 20
86.713502
 30
0.0
 10
35.578008
 20
88.360639
 30
0.0
 10
42.180600
 20
91.484045
 30
0.0
 10
47.804676
 20
95.322282
 30
0.0
  0
SPLINE
  5
11a
100
AcDbEntity
  8
0
 62
7
100
AcDbSpline
 70
8
 71
3
 72
8
 73
4
 74
0
 40
0
 40
0
 40
0
 40
0
 40
1
 40
1
 40
1
 40
1
 10
47.804676
 20
95.322282
 30
0.0
 10
49.782738
 20
96.672254
 30
0.0
 10
53.336502
 20
99.380376
 30
0.0
 10
53.983641
 20
100.030939
 30
0.0
  0
SPLINE
  5
11b
100
AcDbEntity
  8
0
 62
7
100
AcDbSpline
 70
8
 71
3
 72
8
 73
4
 74
0
 40
0
 40
0
 40
0
 40
0
 40
1
 40
1
 40
1
 40
1
 10
53.983641
 20
100.030939
 30
0.0
 10
54.386562
 20
100.436037
 30
0.0
 10
54.384615
 20
100.445202
 30
0.0
 10
53.873466
 20
100.534692
 30
0.0
  0
SPLINE
  5
11c
100
AcDbEntity
  8
0
 62
7
100
AcDbSpline
 70
8
 71
3
 72
8
 73
4
 74
0
 40
0
 40
0
 40
0
 40
0
 40
1
 40
1
 40
1
 40
1
 10
53.873466
 20
100.534692
 30
0.0
 10
49.866328
 20
101.236664
 30
0.0
 10
47.241389
 20
102.111371
 30
0.0
 10
44.315957
 20
103.719659
 30
0.0
  0
SPLINE
  5
11d
100
AcDbEntity
  8
0
 62
7
100
AcDbSpline
 70
8
 71
3
 72
8
 73
4
 74
0
 40
0
 40
0
 40
0
 40
0
 40
1
 40
1
 40
1
 40
1
 10
44.315957
 20
103.719659
 30
0.0
 10
42.112697
 20
104.930895
 30
0.0
 10
39.247284
 20
107.023046
 30
0.0
 10
39.506729
 20
107.230976
 30
0.0
  0
SPLINE
  5
11e
100
AcDbEntity
  8
0
 62
7
100
AcDbSpline
 70
8
 71
3
 72
8
 73
4
 74
0
 40
0
 40
0
 40
0
 40
0
 40
1
 40
1
 40
1
 40
1
 10
39.506729
 20
107.230976
 30
0.0
 10
39.607038
 20
107.311399
 30
0.0
 10
40.829595
 20
107.724387
 30
0.0
 10
42.223473
 20
108.148842
 30
0.0
  0
SPLINE
  5
11f
100
AcDbEntity
  8
0
 62
7
100
AcDbSpline
 70
8
 71
3
 72
8
 73
4
 74
0
 40
0
 40
0
 40
0
 40
0
 40
1
 40
1
 40
1
 40
1
 10
42.223473
 20
108.148842
 30
0.0
 10
47.027110
 20
109.611414
 30
0.0
 10
52.418663
 20
112.334929
 30
0.0
 10
56.768794
 20
115.496224
 30
0.0
  0
SPLINE
  5
120
100
AcDbEntity
  8
0
 62
7
100
AcDbSpline
 70
8
 71
3
 72
8
 73
4
 74
0
 40
0
 40
0
 40
0
 40
0
 40
1
 40
1
 40
1
 40
1
 10
56.768794
 20
115.496224
 30
0.0
 10
59.311823
 20
117.344219
 30
0.0
 10
62.695135
 20
120.172774
 30
0.0
 10
64.036056
 20
121.571845
 30
0.0
  0
LWPOLYLINE
  5
121
100
AcDbEntity
  8
0
 62
7
100
AcDbPolyline
 90
3
 70
0
 10
71.952596
 20
2.386819
 30
0.0
 10
70.928561
 20
2.890628
 30
0.0
 10
71.231789
 20
3.801293
 30
0.0
  0
SPLINE
  5
122
100
AcDbEntity
  8
0
 62
7
100
AcDbSpline
 70
8
 71
3
 72
8
 73
4
 74
0
 40
0
 40
0
 40
0
 40
0
 40
1
 40
1
 40
1
 40
1
 10
63.070473
 20
123.156602
 30
0.0
 10
60.419684
 20
123.710266
 30
0.0
 10
58.434801
 20
124.406374
 30
0.0
 10
54.763196
 20
126.070193
 30
0.0
  0
LWPOLYLINE
  5
123
100
AcDbEntity
  8
0
 62
7
100
AcDbPolyline
 90
3
 70
0
 10
64.036056
 20
121.571845
 30
0.0
 10
65.140454
 20
122.724220
 30
0.0
 10
63.070473
 20
123.156602
 30
0.0
  0
SPLINE
  5
124
100
AcDbEntity
  8
0
 62
7
100
AcDbSpline
 70
8
 71
3
 72
8
 73
4
 74
0
 40
0
 40
0
 40
0
 40
0
 40
1
 40
1
 40
1
 40
1
 10
54.362750
 20
128.156552
 30
0.0
 10
57.682220
 20
129.129488
 30
0.0
 10
60.185700
 20
130.222249
 30
0.0
 10
62.986184
 20
131.920589
 30
0.0
  0
SPLINE
  5
125
100
AcDbEntity
  8
0
 62
7
100
AcDbSpline
 70
8
 71
3
 72
8
 73
4
 74
0
 40
0
 40
0
 40
0
 40
0
 40
1
 40
1
 40
1
 40
1
 10
62.986184
 20
131.920589
 30
0.0
 10
68.729606
 20
135.403635
 30
0.0
 10
74.217128
 20
140.882090
 30
0.0
 10
79.017418
 20
147.925473
 30
0.0
  0
SPLINE
  5
126
100
AcDbEntity
  8
0
 62
7
100
AcDbSpline
 70
8
 71
3
 72
8
 73
4
 74
0
 40
0
 40
0
 40
0
 40
0
 40
1
 40
1
 40
1
 40
1
 10
79.017418
 20
147.925473
 30
0.0
 10
81.551235
 20
151.643202
 30
0.0
 10
82.230550
 20
152.851911
 30
0.0
 10
81.786058
 20
152.851911
 30
0.0
  0
SPLINE
  5
127
100
AcDbEntity
  8
0
 62
7
100
AcDbSpline
 70
8
 71
3
 72
8
 73
4
 74
0
 40
0
 40
0
 40
0
 40
0
 40
1
 40
1
 40
1
 40
1
 10
81.786058
 20
152.851911
 30
0.0
 10
81.368604
 20
152.851911
 30
0.0
 10
81.328403
 20
152.440042
 30
0.0
 10
82.212971
 20
157.230408
 30
0.0
  0
SPLINE
  5
128
100
AcDbEntity
  8
0
 62
7
100
AcDbSpline
 70
8
 71
3
 72
8
 73
4
 74
0
 40
0
 40
0
 40
0
 40
0
 40
1
 40
1
 40
1
 40
1
 10
82.212971
 20
157.230408
 30
0.0
 10
82.627372
 20
159.474223
 30
0.0
 10
82.940917
 20
161.333095
 30
0.0
 10
82.909799
 20
161.361236
 30
0.0
  0
SPLINE
  5
129
100
AcDbEntity
  8
0
 62
7
100
AcDbSpline
 70
8
 71
3
 72
8
 73
4
 74
0
 40
0
 40
0
 40
0
 40
0
 40
1
 40
1
 40
1
 40
1
 10
82.909799
 20
161.361236
 30
0.0
 10
82.878639
 20
161.389356
 30
0.0
 10
81.769310
 20
160.892437
 30
0.0
 10
80.444528
 20
160.256977
 30
0.0
  0
SPLINE
  5
12a
100
AcDbEntity
  8
0
 62
7
100
AcDbSpline
 70
8
 71
3
 72
8
 73
4
 74
0
 40
0
 40
0
 40
0
 40
0
 40
1
 40
1
 40
1
 40
1
 10
80.444528
 20
160.256977
 30
0.0
 10
78.573241
 20
159.359383
 30
0.0
 10
78.024186
 20
159.171055
 30
0.0
 10
77.983689
 20
159.412964
 30
0.0
  0
SPLINE
  5
12b
100
AcDbEntity
  8
0
 62
7
100
AcDbSpline
 70
8
 71
3
 72
8
 73
4
 74
0
 40
0
 40
0
 40
0
 40
0
 40
1
 40
1
 40
1
 40
1
 10
77.983689
 20
159.412964
 30
0.0
 10
77.955021
 20
159.584197
 30
0.0
 10
78.306724
 20
161.670783
 30
0.0
 10
78.765278
 20
164.049826
 30
0.0
  0
LWPOLYLINE
  5
12c
100
AcDbEntity
  8
0
 62
7
100
AcDbPolyline
 90
3
 70
0
 10
54.763196
 20
126.070193
 30
0.0
 10
51.810169
 20
127.408392
 30
0.0
 10
54.362750
 20
128.156552
 30
0.0
  0
SPLINE
  5
12d
100
AcDbEntity
  8
0
 62
7
100
AcDbSpline
 70
8
 71
3
 72
8
 73
4
 74
0
 40
0
 40
0
 40
0
 40
0
 40
1
 40
1
 40
1
 40
1
 10
75.895126
 20
171.718766
 30
0.0
 10
72.304944
 20
174.959637
 30
0.0
 10
72.210054
 20
175.066309
 30
0.0
 10
72.799551
 20
175.197138
 30
0.0
  0
SPLINE
  5
12e
100
AcDbEntity
  8
0
 62
7
100
AcDbSpline
 70
8
 71
3
 72
8
 73
4
 74
0
 40
0
 40
0
 40
0
 40
0
 40
1
 40
1
 40
1
 40
1
 10
72.799551
 20
175.197138
 30
0.0
 10
73.134056
 20
175.271364
 30
0.0
 10
75.292003
 20
175.568166
 30
0.0
 10
77.595084
 20
175.856696
 30
0.0
  0
SPLINE
  5
12f
100
AcDbEntity
  8
0
 62
7
100
AcDbSpline
 70
8
 71
3
 72
8
 73
4
 74
0
 40
0
 40
0
 40
0
 40
0
 40
1
 40
1
 40
1
 40
1
 10
77.595084
 20
175.856696
 30
0.0
 10
79.898026
 20
176.145227
 30
0.0
 10
81.981543
 20
176.453779
 30
0.0
 10
82.225004
 20
176.542390
 30
0.0
  0
SPLINE
  5
130
100
AcDbEntity
  8
0
 62
7
100
AcDbSpline
 70
8
 71
3
 72
8
 73
4
 74
0
 40
0
 40
0
 40
0
 40
0
 40
1
 40
1
 40
1
 40
1
 10
82.225004
 20
176.542390
 30
0.0
 10
82.520658
 20
176.650018
 30
0.0
 10
83.392457
 20
178.067856
 30
0.0
 10
84.851097
 20
180.813289
 30
0.0
  0
SPLINE
  5
131
100
AcDbEntity
  8
0
 62
7
100
AcDbSpline
 70
8
 71
3
 72
8
 73
4
 74
0
 40
0
 40
0
 40
0
 40
0
 40
1
 40
1
 40
1
 40
1
 10
84.851097
 20
180.813289
 30
0.0
 10
86.052057
 20
183.073675
 30
0.0
 10
87.097558
 20
184.923081
 30
0.0
 10
87.174533
 20
184.923081
 30
0.0
  0
SPLINE
  5
132
100
AcDbEntity
  8
0
 62
7
100
AcDbSpline
 70
8
 71
3
 72
8
 73
4
 74
0
 40
0
 40
0
 40
0
 40
0
 40
1
 40
1
 40
1
 40
1
 10
87.174533
 20
184.923081
 30
0.0
 10
87.251437
 20
184.923081
 30
0.0
 10
88.341917
 20
183.038700
 30
0.0
 10
89.597894
 20
180.735563
 30
0.0
  0
SPLINE
  5
133
100
AcDbEntity
  8
0
 62
7
100
AcDbSpline
 70
8
 71
3
 72
8
 73
4
 74
0
 40
0
 40
0
 40
0
 40
0
 40
1
 40
1
 40
1
 40
1
 10
89.597894
 20
180.735563
 30
0.0
 10
91.324030
 20
177.570122
 30
0.0
 10
91.993656
 20
176.525920
 30
0.0
 10
92.341435
 20
176.457401
 30
0.0
  0
SPLINE
  5
134
100
AcDbEntity
  8
0
 62
7
100
AcDbSpline
 70
8
 71
3
 72
8
 73
4
 74
0
 40
0
 40
0
 40
0
 40
0
 40
1
 40
1
 40
1
 40
1
 10
92.341435
 20
176.457401
 30
0.0
 10
92.594475
 20
176.407538
 30
0.0
 10
94.879308
 20
176.092673
 30
0.0
 10
97.418813
 20
175.757679
 30
0.0
  0
SPLINE
  5
135
100
AcDbEntity
  8
0
 62
7
100
AcDbSpline
 70
8
 71
3
 72
8
 73
4
 74
0
 40
0
 40
0
 40
0
 40
0
 40
1
 40
1
 40
1
 40
1
 10
97.418813
 20
175.757679
 30
0.0
 10
99.958276
 20
175.422692
 30
0.0
 10
102.067175
 20
175.120459
 30
0.0
 10
102.105235
 20
175.086047
 30
0.0
  0
SPLINE
  5
136
100
AcDbEntity
  8
0
 62
7
100
AcDbSpline
 70
8
 71
3
 72
8
 73
4
 74
0
 40
0
 40
0
 40
0
 40
0
 40
1
 40
1
 40
1
 40
1
 10
102.105235
 20
175.086047
 30
0.0
 10
102.143346
 20
175.051641
 30
0.0
 10
100.512687
 20
173.535726
 30
0.0
 10
98.481560
 20
171.717361
 30
0.0
  0
LWPOLYLINE
  5
137
100
AcDbEntity
  8
0
 62
7
100
AcDbPolyline
 90
3
 70
0
 10
78.765278
 20
164.049826
 30
0.0
 10
79.598872
 20
168.375356
 30
0.0
 10
75.895126
 20
171.718766
 30
0.0
  0
SPLINE
  5
138
100
AcDbEntity
  8
0
 62
7
100
AcDbSpline
 70
8
 71
3
 72
8
 73
4
 74
0
 40
0
 40
0
 40
0
 40
0
 40
1
 40
1
 40
1
 40
1
 10
95.650106
 20
163.818930
 30
0.0
 10
96.123950
 20
161.293162
 30
0.0
 10
96.470279
 20
159.195601
 30
0.0
 10
96.419678
 20
159.157696
 30
0.0
  0
SPLINE
  5
139
100
AcDbEntity
  8
0
 62
7
100
AcDbSpline
 70
8
 71
3
 72
8
 73
4
 74
0
 40
0
 40
0
 40
0
 40
0
 40
1
 40
1
 40
1
 40
1
 10
96.419678
 20
159.157696
 30
0.0
 10
96.369029
 20
159.119790
 30
0.0
 10
95.243724
 20
159.611568
 30
0.0
 10
93.919008
 20
160.250571
 30
0.0
  0
SPLINE
  5
13a
100
AcDbEntity
  8
0
 62
7
100
AcDbSpline
 70
8
 71
3
 72
8
 73
4
 74
0
 40
0
 40
0
 40
0
 40
0
 40
1
 40
1
 40
1
 40
1
 10
93.919008
 20
160.250571
 30
0.0
 10
92.594184
 20
160.889556
 30
0.0
 10
91.491311
 20
161.391116
 30
0.0
 10
91.468046
 20
161.365134
 30
0.0
  0
SPLINE
  5
13b
100
AcDbEntity
  8
0
 62
7
100
AcDbSpline
 70
8
 71
3
 72
8
 73
4
 74
0
 40
0
 40
0
 40
0
 40
0
 40
1
 40
1
 40
1
 40
1
 10
91.468046
 20
161.365134
 30
0.0
 10
91.444921
 20
161.339125
 30
0.0
 10
91.758114
 20
159.525107
 30
0.0
 10
92.164318
 20
157.333897
 30
0.0
  0
SPLINE
  5
13c
100
AcDbEntity
  8
0
 62
7
100
AcDbSpline
 70
8
 71
3
 72
8
 73
4
 74
0
 40
0
 40
0
 40
0
 40
0
 40
1
 40
1
 40
1
 40
1
 10
92.164318
 20
157.333897
 30
0.0
 10
92.570514
 20
155.142708
 30
0.0
 10
92.904876
 20
153.237848
 30
0.0
 10
92.907302
 20
153.100897
 30
0.0
  0
SPLINE
  5
13d
100
AcDbEntity
  8
0
 62
7
100
AcDbSpline
 70
8
 71
3
 72
8
 73
4
 74
0
 40
0
 40
0
 40
0
 40
0
 40
1
 40
1
 40
1
 40
1
 10
92.907302
 20
153.100897
 30
0.0
 10
92.909948
 20
152.955956
 30
0.0
 10
92.634395
 20
152.851911
 30
0.0
 10
92.248080
 20
152.851911
 30
0.0
  0
LWPOLYLINE
  5
13e
100
AcDbEntity
  8
0
 62
7
100
AcDbPolyline
 90
3
 70
0
 10
98.481560
 20
171.717361
 30
0.0
 10
94.788564
 20
168.411231
 30
0.0
 10
95.650106
 20
163.818930
 30
0.0
  0
SPLINE
  5
13f
100
AcDbEntity
  8
0
 62
7
100
AcDbSpline
 70
8
 71
3
 72
8
 73
4
 74
0
 40
0
 40
0
 40
0
 40
0
 40
1
 40
1
 40
1
 40
1
 10
92.457169
 20
151.283085
 30
0.0
 10
94.521113
 20
147.572749
 30
0.0
 10
97.625792
 20
143.145846
 30
0.0
 10
100.364568
 20
140.008205
 30
0.0
  0
SPLINE
  5
140
100
AcDbEntity
  8
0
 62
7
100
AcDbSpline
 70
8
 71
3
 72
8
 73
4
 74
0
 40
0
 40
0
 40
0
 40
0
 40
1
 40
1
 40
1
 40
1
 10
100.364568
 20
140.008205
 30
0.0
 10
102.199056
 20
137.906482
 30
0.0
 10
106.670242
 20
133.982677
 30
0.0
 10
108.755863
 20
132.644081
 30
0.0
  0
SPLINE
  5
141
100
AcDbEntity
  8
0
 62
7
100
AcDbSpline
 70
8
 71
3
 72
8
 73
4
 74
0
 40
0
 40
0
 40
0
 40
0
 40
1
 40
1
 40
1
 40
1
 10
108.755863
 20
132.644081
 30
0.0
 10
112.300631
 20
130.368953
 30
0.0
 10
116.073174
 20
128.891967
 30
0.0
 10
120.514748
 20
128.040254
 30
0.0
  0
SPLINE
  5
142
100
AcDbEntity
  8
0
 62
7
100
AcDbSpline
 70
8
 71
3
 72
8
 73
4
 74
0
 40
0
 40
0
 40
0
 40
0
 40
1
 40
1
 40
1
 40
1
 10
120.514748
 20
128.040254
 30
0.0
 10
121.454148
 20
127.860131
 30
0.0
 10
122.222736
 20
127.653598
 30
0.0
 10
122.222736
 20
127.581327
 30
0.0
  0
SPLINE
  5
143
100
AcDbEntity
  8
0
 62
7
100
AcDbSpline
 70
8
 71
3
 72
8
 73
4
 74
0
 40
0
 40
0
 40
0
 40
0
 40
1
 40
1
 40
1
 40
1
 10
122.222736
 20
127.581327
 30
0.0
 10
122.222736
 20
127.509024
 30
0.0
 10
121.057056
 20
126.895426
 30
0.0
 10
119.632323
 20
126.217733
 30
0.0
  0
SPLINE
  5
144
100
AcDbEntity
  8
0
 62
7
100
AcDbSpline
 70
8
 71
3
 72
8
 73
4
 74
0
 40
0
 40
0
 40
0
 40
0
 40
1
 40
1
 40
1
 40
1
 10
119.632323
 20
126.217733
 30
0.0
 10
116.645994
 20
124.797328
 30
0.0
 10
113.184768
 20
123.699894
 30
0.0
 10
110.652584
 20
123.370525
 30
0.0
  0
SPLINE
  5
145
100
AcDbEntity
  8
0
 62
7
100
AcDbSpline
 70
8
 71
3
 72
8
 73
4
 74
0
 40
0
 40
0
 40
0
 40
0
 40
1
 40
1
 40
1
 40
1
 10
110.652584
 20
123.370525
 30
0.0
 10
109.682894
 20
123.244420
 30
0.0
 10
108.492830
 20
123.079023
 30
0.0
 10
108.007989
 20
123.003000
 30
0.0
  0
LWPOLYLINE
  5
146
100
AcDbEntity
  8
0
 62
7
100
AcDbPolyline
 90
3
 70
0
 10
92.248080
 20
152.851911
 30
0.0
 10
91.584531
 20
152.851911
 30
0.0
 10
92.457169
 20
151.283085
 30
0.0
  0
SPLINE
  5
147
100
AcDbEntity
  8
0
 62
7
100
AcDbSpline
 70
8
 71
3
 72
8
 73
4
 74
0
 40
0
 40
0
 40
0
 40
0
 40
1
 40
1
 40
1
 40
1
 10
110.652584
 20
119.675672
 30
0.0
 10
117.963109
 20
113.063888
 30
0.0
 10
124.752079
 20
109.468679
 30
0.0
 10
133.021528
 20
107.829945
 30
0.0
  0
SPLINE
  5
148
100
AcDbEntity
  8
0
 62
7
100
AcDbSpline
 70
8
 71
3
 72
8
 73
4
 74
0
 40
0
 40
0
 40
0
 40
0
 40
1
 40
1
 40
1
 40
1
 10
133.021528
 20
107.829945
 30
0.0
 10
134.294242
 20
107.577713
 30
0.0
 10
135.415658
 20
107.308642
 30
0.0
 10
135.513559
 20
107.232000
 30
0.0
  0
SPLINE
  5
149
100
AcDbEntity
  8
0
 62
7
100
AcDbSpline
 70
8
 71
3
 72
8
 73
4
 74
0
 40
0
 40
0
 40
0
 40
0
 40
1
 40
1
 40
1
 40
1
 10
135.513559
 20
107.232000
 30
0.0
 10
135.692541
 20
107.091922
 30
0.0
 10
129.776143
 20
104.062332
 30
0.0
 10
126.079462
 20
102.401103
 30
0.0
  0
SPLINE
  5
14a
100
AcDbEntity
  8
0
 62
7
100
AcDbSpline
 70
8
 71
3
 72
8
 73
4
 74
0
 40
0
 40
0
 40
0
 40
0
 40
1
 40
1
 40
1
 40
1
 10
126.079462
 20
102.401103
 30
0.0
 10
123.925285
 20
101.433088
 30
0.0
 10
121.143403
 20
100.530030
 30
0.0
 10
119.710401
 20
100.333654
 30
0.0
  0
SPLINE
  5
14b
100
AcDbEntity
  8
0
 62
7
100
AcDbSpline
 70
8
 71
3
 72
8
 73
4
 74
0
 40
0
 40
0
 40
0
 40
0
 40
1
 40
1
 40
1
 40
1
 10
119.710401
 20
100.333654
 30
0.0
 10
118.130743
 20
100.117227
 30
0.0
 10
118.119401
 20
100.021850
 30
0.0
 10
119.532006
 20
98.839724
 30
0.0
  0
SPLINE
  5
14c
100
AcDbEntity
  8
0
 62
7
100
AcDbSpline
 70
8
 71
3
 72
8
 73
4
 74
0
 40
0
 40
0
 40
0
 40
0
 40
1
 40
1
 40
1
 40
1
 10
119.532006
 20
98.839724
 30
0.0
 10
126.543162
 20
92.972551
 30
0.0
 10
136.187569
 20
88.281224
 30
0.0
 10
144.316209
 20
86.783833
 30
0.0
  0
SPLINE
  5
14d
100
AcDbEntity
  8
0
 62
7
100
AcDbSpline
 70
8
 71
3
 72
8
 73
4
 74
0
 40
0
 40
0
 40
0
 40
0
 40
1
 40
1
 40
1
 40
1
 10
144.316209
 20
86.783833
 30
0.0
 10
145.376794
 20
86.588447
 30
0.0
 10
146.244567
 20
86.368236
 30
0.0
 10
146.244567
 20
86.294476
 30
0.0
  0
SPLINE
  5
14e
100
AcDbEntity
  8
0
 62
7
100
AcDbSpline
 70
8
 71
3
 72
8
 73
4
 74
0
 40
0
 40
0
 40
0
 40
0
 40
1
 40
1
 40
1
 40
1
 10
146.244567
 20
86.294476
 30
0.0
 10
146.244567
 20
86.044119
 30
0.0
 10
141.443990
 20
82.295921
 30
0.0
 10
139.597178
 20
81.104415
 30
0.0
  0
SPLINE
  5
14f
100
AcDbEntity
  8
0
 62
7
100
AcDbSpline
 70
8
 71
3
 72
8
 73
4
 74
0
 40
0
 40
0
 40
0
 40
0
 40
1
 40
1
 40
1
 40
1
 10
139.597178
 20
81.104415
 30
0.0
 10
137.010267
 20
79.435367
 30
0.0
 10
134.224305
 20
78.031988
 30
0.0
 10
131.501986
 20
77.026704
 30
0.0
  0
SPLINE
  5
150
100
AcDbEntity
  8
0
 62
7
100
AcDbSpline
 70
8
 71
3
 72
8
 73
4
 74
0
 40
0
 40
0
 40
0
 40
0
 40
1
 40
1
 40
1
 40
1
 10
131.501986
 20
77.026704
 30
0.0
 10
130.216521
 20
76.552031
 30
0.0
 10
129.046700
 20
76.162792
 30
0.0
 10
128.902375
 20
76.161815
 30
0.0
  0
SPLINE
  5
151
100
AcDbEntity
  8
0
 62
7
100
AcDbSpline
 70
8
 71
3
 72
8
 73
4
 74
0
 40
0
 40
0
 40
0
 40
0
 40
1
 40
1
 40
1
 40
1
 10
128.902375
 20
76.161815
 30
0.0
 10
128.172038
 20
76.156868
 30
0.0
 10
128.549762
 20
75.671982
 30
0.0
 10
130.132704
 20
74.582742
 30
0.0
  0
SPLINE
  5
152
100
AcDbEntity
  8
0
 62
7
100
AcDbSpline
 70
8
 71
3
 72
8
 73
4
 74
0
 40
0
 40
0
 40
0
 40
0
 40
1
 40
1
 40
1
 40
1
 10
130.132704
 20
74.582742
 30
0.0
 10
133.327833
 20
72.384319
 30
0.0
 10
137.278110
 20
70.175692
 30
0.0
 10
140.845162
 20
68.593338
 30
0.0
  0
SPLINE
  5
153
100
AcDbEntity
  8
0
 62
7
100
AcDbSpline
 70
8
 71
3
 72
8
 73
4
 74
0
 40
0
 40
0
 40
0
 40
0
 40
1
 40
1
 40
1
 40
1
 10
140.845162
 20
68.593338
 30
0.0
 10
145.209403
 20
66.657225
 30
0.0
 10
147.812339
 20
65.782981
 30
0.0
 10
152.173739
 20
64.788142
 30
0.0
  0
SPLINE
  5
154
100
AcDbEntity
  8
0
 62
7
100
AcDbSpline
 70
8
 71
3
 72
8
 73
4
 74
0
 40
0
 40
0
 40
0
 40
0
 40
1
 40
1
 40
1
 40
1
 10
152.173739
 20
64.788142
 30
0.0
 10
154.040848
 20
64.362274
 30
0.0
 10
155.603940
 20
63.981875
 30
0.0
 10
155.647244
 20
63.942727
 30
0.0
  0
SPLINE
  5
155
100
AcDbEntity
  8
0
 62
7
100
AcDbSpline
 70
8
 71
3
 72
8
 73
4
 74
0
 40
0
 40
0
 40
0
 40
0
 40
1
 40
1
 40
1
 40
1
 10
155.647244
 20
63.942727
 30
0.0
 10
155.824801
 20
63.782255
 30
0.0
 10
149.961883
 20
58.820510
 30
0.0
 10
148.439071
 20
57.842460
 30
0.0
  0
SPLINE
  5
156
100
AcDbEntity
  8
0
 62
7
100
AcDbSpline
 70
8
 71
3
 72
8
 73
4
 74
0
 40
0
 40
0
 40
0
 40
0
 40
1
 40
1
 40
1
 40
1
 10
148.439071
 20
57.842460
 30
0.0
 10
147.535109
 20
57.261995
 30
0.0
 10
145.916933
 20
56.405087
 30
0.0
 10
144.843061
 20
55.938198
 30
0.0
  0
LWPOLYLINE
  5
157
100
AcDbEntity
  8
0
 62
7
100
AcDbPolyline
 90
3
 70
0
 10
108.007989
 20
123.003000
 30
0.0
 10
107.126471
 20
122.864769
 30
0.0
 10
110.652584
 20
119.675672
 30
0.0
  0
SPLINE
  5
158
100
AcDbEntity
  8
0
 62
7
100
AcDbSpline
 70
8
 71
3
 72
8
 73
4
 74
0
 40
0
 40
0
 40
0
 40
0
 40
1
 40
1
 40
1
 40
1
 10
144.071737
 20
54.306396
 30
0.0
 10
147.398584
 20
52.100432
 30
0.0
 10
151.643540
 20
49.752525
 30
0.0
 10
155.500681
 20
47.984730
 30
0.0
  0
SPLINE
  5
159
100
AcDbEntity
  8
0
 62
7
100
AcDbSpline
 70
8
 71
3
 72
8
 73
4
 74
0
 40
0
 40
0
 40
0
 40
0
 40
1
 40
1
 40
1
 40
1
 10
155.500681
 20
47.984730
 30
0.0
 10
160.813014
 20
45.550108
 30
0.0
 10
165.019950
 20
44.123335
 30
0.0
 10
170.741597
 20
42.815682
 30
0.0
  0
LWPOLYLINE
  5
15a
100
AcDbEntity
  8
0
 62
7
100
AcDbPolyline
 90
3
 70
0
 10
144.843061
 20
55.938198
 30
0.0
 10
142.890626
 20
55.089547
 30
0.0
 10
144.071737
 20
54.306396
 30
0.0
  0
SPLINE
  5
15b
100
AcDbEntity
  8
0
 62
7
100
AcDbSpline
 70
8
 71
3
 72
8
 73
4
 74
0
 40
0
 40
0
 40
0
 40
0
 40
1
 40
1
 40
1
 40
1
 10
173.293175
 20
40.194243
 30
0.0
 10
169.967219
 20
34.896848
 30
0.0
 10
169.473904
 20
34.226735
 30
0.0
 10
167.731974
 20
32.640130
 30
0.0
  0
SPLINE
  5
15c
100
AcDbEntity
  8
0
 62
7
100
AcDbSpline
 70
8
 71
3
 72
8
 73
4
 74
0
 40
0
 40
0
 40
0
 40
0
 40
1
 40
1
 40
1
 40
1
 10
167.731974
 20
32.640130
 30
0.0
 10
165.788827
 20
30.870208
 30
0.0
 10
164.112742
 20
29.981160
 30
0.0
 10
161.671413
 20
29.425598
 30
0.0
  0
SPLINE
  5
15d
100
AcDbEntity
  8
0
 62
7
100
AcDbSpline
 70
8
 71
3
 72
8
 73
4
 74
0
 40
0
 40
0
 40
0
 40
0
 40
1
 40
1
 40
1
 40
1
 10
161.671413
 20
29.425598
 30
0.0
 10
159.538874
 20
28.940239
 30
0.0
 10
155.589967
 20
29.131847
 30
0.0
 10
152.966272
 20
29.847950
 30
0.0
  0
SPLINE
  5
15e
100
AcDbEntity
  8
0
 62
7
100
AcDbSpline
 70
8
 71
3
 72
8
 73
4
 74
0
 40
0
 40
0
 40
0
 40
0
 40
1
 40
1
 40
1
 40
1
 10
152.966272
 20
29.847950
 30
0.0
 10
151.875360
 20
30.145752
 30
0.0
 10
150.834040
 20
30.422808
 30
0.0
 10
150.652229
 20
30.463561
 30
0.0
  0
SPLINE
  5
15f
100
AcDbEntity
  8
0
 62
7
100
AcDbSpline
 70
8
 71
3
 72
8
 73
4
 74
0
 40
0
 40
0
 40
0
 40
0
 40
1
 40
1
 40
1
 40
1
 10
150.652229
 20
30.463561
 30
0.0
 10
150.452267
 20
30.508385
 30
0.0
 10
149.949069
 20
30.086239
 30
0.0
 10
149.378718
 20
29.395105
 30
0.0
  0
SPLINE
  5
160
100
AcDbEntity
  8
0
 62
7
100
AcDbSpline
 70
8
 71
3
 72
8
 73
4
 74
0
 40
0
 40
0
 40
0
 40
0
 40
1
 40
1
 40
1
 40
1
 10
149.378718
 20
29.395105
 30
0.0
 10
147.858954
 20
27.553386
 30
0.0
 10
145.169710
 20
25.212080
 30
0.0
 10
143.233129
 20
24.044442
 30
0.0
  0
SPLINE
  5
161
100
AcDbEntity
  8
0
 62
7
100
AcDbSpline
 70
8
 71
3
 72
8
 73
4
 74
0
 40
0
 40
0
 40
0
 40
0
 40
1
 40
1
 40
1
 40
1
 10
143.233129
 20
24.044442
 30
0.0
 10
139.864634
 20
22.013489
 30
0.0
 10
136.878531
 20
21.252913
 30
0.0
 10
133.021528
 20
21.443741
 30
0.0
  0
SPLINE
  5
162
100
AcDbEntity
  8
0
 62
7
100
AcDbSpline
 70
8
 71
3
 72
8
 73
4
 74
0
 40
0
 40
0
 40
0
 40
0
 40
1
 40
1
 40
1
 40
1
 10
133.021528
 20
21.443741
 30
0.0
 10
130.335285
 20
21.576641
 30
0.0
 10
128.229691
 20
22.032746
 30
0.0
 10
124.948143
 20
23.192372
 30
0.0
  0
LWPOLYLINE
  5
163
100
AcDbEntity
  8
0
 62
7
100
AcDbPolyline
 90
3
 70
0
 10
170.741597
 20
42.815682
 30
0.0
 10
174.412365
 20
41.976836
 30
0.0
 10
173.293175
 20
40.194243
 30
0.0
  0
SPLINE
  5
164
100
AcDbEntity
  8
0
 62
7
100
AcDbSpline
 70
8
 71
3
 72
8
 73
4
 74
0
 40
0
 40
0
 40
0
 40
0
 40
1
 40
1
 40
1
 40
1
 10
121.849063
 20
23.208229
 30
0.0
 10
120.057704
 20
21.258855
 30
0.0
 10
115.968246
 20
18.848022
 30
0.0
 10
113.209231
 20
18.114537
 30
0.0
  0
SPLINE
  5
165
100
AcDbEntity
  8
0
 62
7
100
AcDbSpline
 70
8
 71
3
 72
8
 73
4
 74
0
 40
0
 40
0
 40
0
 40
0
 40
1
 40
1
 40
1
 40
1
 10
113.209231
 20
18.114537
 30
0.0
 10
108.783067
 20
16.937964
 30
0.0
 10
103.734677
 20
17.473933
 30
0.0
 10
98.527425
 20
19.673430
 30
0.0
  0
SPLINE
  5
166
100
AcDbEntity
  8
0
 62
7
100
AcDbSpline
 70
8
 71
3
 72
8
 73
4
 74
0
 40
0
 40
0
 40
0
 40
0
 40
1
 40
1
 40
1
 40
1
 10
98.527425
 20
19.673430
 30
0.0
 10
96.617195
 20
20.480216
 30
0.0
 10
96.437834
 20
20.521864
 30
0.0
 10
96.437834
 20
20.157911
 30
0.0
  0
SPLINE
  5
167
100
AcDbEntity
  8
0
 62
7
100
AcDbSpline
 70
8
 71
3
 72
8
 73
4
 74
0
 40
0
 40
0
 40
0
 40
0
 40
1
 40
1
 40
1
 40
1
 10
96.437834
 20
20.157911
 30
0.0
 10
96.437834
 20
18.635774
 30
0.0
 10
98.371070
 20
9.364901
 30
0.0
 10
99.666769
 20
4.673650
 30
0.0
  0
SPLINE
  5
168
100
AcDbEntity
  8
0
 62
7
100
AcDbSpline
 70
8
 71
3
 72
8
 73
4
 74
0
 40
0
 40
0
 40
0
 40
0
 40
1
 40
1
 40
1
 40
1
 10
99.666769
 20
4.673650
 30
0.0
 10
100.289005
 20
2.420631
 30
0.0
 10
100.396910
 20
1.778053
 30
0.0
 10
100.173930
 20
1.653381
 30
0.0
  0
SPLINE
  5
169
100
AcDbEntity
  8
0
 62
7
100
AcDbSpline
 70
8
 71
3
 72
8
 73
4
 74
0
 40
0
 40
0
 40
0
 40
0
 40
1
 40
1
 40
1
 40
1
 10
100.173930
 20
1.653381
 30
0.0
 10
99.829313
 20
1.460918
 30
0.0
 10
96.744121
 20
0.954728
 30
0.0
 10
93.462673
 20
0.552439
 30
0.0
  0
SPLINE
  5
16a
100
AcDbEntity
  8
0
 62
7
100
AcDbSpline
 70
8
 71
3
 72
8
 73
4
 74
0
 40
0
 40
0
 40
0
 40
0
 40
1
 40
1
 40
1
 40
1
 10
93.462673
 20
0.552439
 30
0.0
 10
91.072586
 20
0.259387
 30
0.0
 10
83.719472
 20
0.024781
 30
0.0
 10
82.002688
 20
0.186775
 30
0.0
  0
LWPOLYLINE
  5
16b
100
AcDbEntity
  8
0
 62
7
100
AcDbPolyline
 90
3
 70
0
 10
124.948143
 20
23.192372
 30
0.0
 10
122.597870
 20
24.023026
 30
0.0
 10
121.849063
 20
23.208229
 30
0.0
  0
LWPOLYLINE
  5
16c
100
AcDbEntity
  8
0
 62
7
100
AcDbPolyline
 90
1
 70
1
 10
82.002688
 20
0.186775
 30
0.0
  0
ENDSEC
  0
SECTION
  2
OBJECTS
  0
DICTIONARY
  5
C
330
0
100
AcDbDictionary
  3
ACAD_GROUP
350
D
  3
ACAD_MLINESTYLE
350
17
  0
DICTIONARY
  5
D
330
C
100
AcDbDictionary
  0
DICTIONARY
  5
1A
330
C
100
AcDbDictionary
  0
DICTIONARY
  5
17
330
C
100
AcDbDictionary
  3
STANDARD
350
18
  0
DICTIONARY
  5
19
330
C
100
AcDbDictionary
  0
ENDSEC
  0
EOF
