<?xml version="1.0" encoding="UTF-8" standalone="no"?>
<svg
   xmlns:dc="http://purl.org/dc/elements/1.1/"
   xmlns:cc="http://creativecommons.org/ns#"
   xmlns:rdf="http://www.w3.org/1999/02/22-rdf-syntax-ns#"
   xmlns:svg="http://www.w3.org/2000/svg"
   xmlns="http://www.w3.org/2000/svg"
   xmlns:sodipodi="http://sodipodi.sourceforge.net/DTD/sodipodi-0.dtd"
   xmlns:inkscape="http://www.inkscape.org/namespaces/inkscape"
   version="1.1"
   id="svg867"
   width="927"
   height="1200"
   viewBox="0 0 927 1200"
   sodipodi:docname="ESP8266_Xmas_Edge_Cuts_custom.svg"
   inkscape:version="1.0.2 (e86c870879, 2021-01-15)"
   inkscape:export-filename="/home/domi/KiCad/ESP8266XmasTree/Graphics/XMas_Tree/ESP8266_Xmas_Tree-Silkscreen_custom.png"
   inkscape:export-xdpi="96"
   inkscape:export-ydpi="96">
  <metadata
     id="metadata873">
    <rdf:RDF>
      <cc:Work
         rdf:about="">
        <dc:format>image/svg+xml</dc:format>
        <dc:type
           rdf:resource="http://purl.org/dc/dcmitype/StillImage" />
        <dc:title></dc:title>
      </cc:Work>
    </rdf:RDF>
  </metadata>
  <defs
     id="defs871">
    <inkscape:path-effect
       effect="offset"
       id="path-effect832"
       is_visible="true"
       lpeversion="1"
       linejoin_type="miter"
       unit="mm"
       offset="0.4"
       miter_limit="4"
       attempt_force_join="true"
       update_on_knot_move="true" />
  </defs>
  <sodipodi:namedview
     pagecolor="#ffffff"
     bordercolor="#666666"
     borderopacity="1"
     objecttolerance="10"
     gridtolerance="10"
     guidetolerance="10"
     inkscape:pageopacity="0"
     inkscape:pageshadow="2"
     inkscape:window-width="1916"
     inkscape:window-height="1040"
     id="namedview869"
     showgrid="false"
     inkscape:zoom="1.0005561"
     inkscape:cx="196.22647"
     inkscape:cy="623.56114"
     inkscape:window-x="0"
     inkscape:window-y="18"
     inkscape:window-maximized="0"
     inkscape:current-layer="g999"
     inkscape:document-rotation="0" />
  <g
     inkscape:label="edge_cuts"
     id="g999"
     style="display:inline;opacity:1"
     inkscape:groupmode="layer">
    <path
       id="path997"
       style="display:inline;fill:none;stroke:#fe0000;stroke-width:0.755906;stroke-miterlimit:4;stroke-dasharray:none;stroke-opacity:1"
       inkscape:label="path997"
       d="m 466.69336,222.03711 c -1.36834,0 -1.32559,0.71498 -1.43359,0.87695 -0.97201,1.45779 -4.17245,7.82735 -7.87305,15.53321 -4.98537,10.38158 -7.93698,15.31205 -8.18555,15.41211 -0.42222,0.16993 -7.6053,1.40902 -15.47656,2.5 -7.88263,1.0926 -15.13214,2.1741 -16.55469,2.52343 -0.43649,0.10718 -1.19572,0.26297 -1.70508,0.94922 -1.56104,2.10317 1.76182,4.94065 11.58594,14.75195 l 12.10938,12.09375 -2.7168,15.59375 c -1.56861,9.00407 -2.84135,16.93293 -2.67578,18.03125 0.498,3.29225 4.1845,1.33053 10.61914,-2.08398 2.25779,-1.19811 4.32231,-2.26155 5.83594,-3.01172 0.0241,-0.0119 0.0328,-0.0156 0.0566,-0.0273 -0.0904,0.62804 -0.15876,1.13853 -0.28516,1.96875 -0.43014,2.82519 -1.04999,6.69877 -1.75781,10.93945 -1.51256,9.06118 -2.24212,13.22468 -2.41602,15.19531 -0.089,1.009 -0.16194,2.0496 0.6836,2.7461 0.14085,0.11602 0.27436,0.0975 0.41797,0.16015 -0.18816,0.51621 -0.43115,1.11383 -0.91797,2.07227 -1.45012,2.85492 -4.16444,7.4599 -8.49414,14.48828 -16.33668,26.51944 -34.96391,47.06914 -54.38282,60.09766 -9.45641,6.34493 -17.89561,10.42105 -29.11914,14.06054 l -12.23633,3.96875 13.39454,6.71485 c 12.62345,6.32844 19.51906,9.01343 28.75,11.14648 l 4.63281,1.07031 -2.13477,2.46289 c -4.50385,5.19898 -15.99974,15.8391 -24.6582,22.80079 -14.76939,11.87402 -33.01284,22.0647 -49.28125,27.54492 -4.77114,1.60706 -9.13898,3.1785 -9.8125,3.77539 -0.90297,0.8013 -0.5122,1.85937 -0.28906,2.2793 1.25077,2.35385 10.13625,9.28233 16.95507,13.42968 9.96975,6.0637 18.95983,9.38454 32.29102,12.04102 -2.42907,2.54613 -13.92789,12.28561 -20.48437,17.23633 -19.11326,14.43099 -41.53448,26.16021 -61.77149,32.33593 -2.81728,0.85977 -6.1582,1.93635 -6.1582,3.64454 0,0.65665 0.39348,1.16689 0.61719,1.45898 2.01337,2.62876 11.16595,10.8856 16.35937,14.77539 11.18711,8.3776 25.38542,15.37529 36.8418,18.11719 l 2.49609,0.59765 c -28.45107,22.55276 -51.64309,35.75256 -78.45703,44.64063 -4.20745,1.39497 -7.87168,2.78528 -8.76758,3.42383 -0.15198,0.10832 -0.74609,0.33692 -0.74609,1.35351 0,0.54841 0.29291,1.08324 0.5,1.43164 1.86382,3.13567 10.49899,13.11736 14.87109,17.15625 4.76636,4.40291 13.85216,11.44178 16.95703,13.17188 -1.39551,1.2806 -4.73316,3.67551 -11.69531,8.44336 -25.41636,17.40561 -51.75843,30.73296 -76.29492,38.62695 -4.05519,1.30467 -8.3831,2.83777 -8.39844,4.67969 -0.01,0.9678 1.01204,3.6267 2.125,6.25781 8.0005,18.91472 26.52511,33.86176 48.55469,39.33203 9.6772,2.40279 24.85957,2.35766 34.46289,-0.10742 6.5076,-1.67007 5.81379,-1.39082 6.15039,-0.91602 10.59508,14.94325 17.23288,19.96744 30.79102,22.875 6.32017,1.35571 21.1513,0.31398 30.09179,-2.01757 3.66798,-0.95664 6.41189,-1.74448 7.51563,-2.19532 0.0101,0.005 0.0186,0.01 0.0293,0.0156 0.0306,0.0161 0.0646,0.0336 0.0996,0.0527 0.3666,0.20031 0.89065,0.52429 1.55274,0.96094 1.32418,0.8733 3.08495,2.12613 4.97656,3.56055 19.82322,15.02889 36.03609,19.98462 54.1875,16.21875 7.85679,-1.62963 19.12391,-6.43549 25.71875,-10.97266 2.07799,-1.42967 2.91071,-1.71242 2.97266,-1.73437 0.4304,0.87574 0.54586,3.52307 0.43359,8.88671 -0.43552,20.79397 -3.95666,54.78442 -6.42773,62.9961 l -1.39454,4.62305 4.58204,2.49218 c 6.51679,3.54663 21.09564,7.05635 34.93945,8.50196 6.168,0.6436 31.22893,-0.26125 39.55469,-1.39063 11.22774,-1.5228 22.06327,-3.46328 23.54492,-4.3789 1.90278,-1.1765 1.06914,-4.5415 -1.0625,-13.08008 -4.30331,-17.23625 -10.50865,-49.99089 -10.8711,-57.17578 1.00712,0.38176 2.42892,1.01683 4.86719,2.15625 18.07135,8.4448 35.71078,10.55945 51.2793,5.98046 9.67234,-2.84473 23.99307,-12.18296 30.28516,-19.75781 l 1.86523,-2.24609 7.02148,2.74609 c 11.3419,4.43419 18.67624,6.20392 28.08204,6.71875 13.58356,0.74354 24.02768,-2.20826 35.8457,-10.09179 6.7428,-4.49779 16.11902,-13.53502 21.38867,-20.59961 1.13494,-1.52173 2.13692,-2.61175 2.83203,-3.17579 0.0434,-0.0352 0.0842,-0.0682 0.12305,-0.0977 0.0349,-0.0265 0.067,-0.0507 0.0977,-0.0723 0.02,-0.0141 0.0368,-0.0271 0.0547,-0.0391 0.72382,0.19238 3.94303,1.13415 7.51563,2.21289 9.1386,2.76009 23.02461,3.5213 30.57812,1.61914 8.66691,-2.18255 14.594,-5.67629 21.43164,-12.56641 6.03169,-6.07791 7.87967,-8.84326 19.26172,-28.90039 l 4.8086,-8.4707 -14.47852,-3.66015 c -19.44441,-4.91594 -33.75579,-10.28569 -51.8125,-19.44141 -13.12991,-6.65739 -27.56204,-15.49107 -38.87891,-23.79297 l -2.00781,-1.47266 4.40625,-2.11914 c 3.73136,-1.79396 9.36709,-5.09618 12.51953,-7.33593 4.90119,-3.48224 21.47442,-18.87465 24.55078,-22.66797 0.33872,-0.41765 1.3541,-1.65761 0.29688,-2.71485 -0.58867,-0.5887 -6.19399,-1.98642 -12.58008,-3.59765 -14.81877,-3.73959 -23.60066,-7.00164 -38.44922,-14.28907 -12.12224,-5.94991 -25.52629,-14.24056 -36.38672,-22.50781 -2.08285,-1.58556 -3.39323,-2.71424 -4.20703,-3.58203 1.32655,-0.26796 4.56701,-1.43641 8.54688,-3.0625 9.42499,-3.85069 19.05865,-9.22316 27.99218,-15.59961 5.77971,-4.12602 19.60203,-15.95277 22.51563,-19.20117 0.31826,-0.35483 0.85156,-0.91824 0.85156,-1.66797 0,-0.83108 -0.59456,-1.24636 -0.7539,-1.35352 -0.82021,-0.55159 -3.77107,-1.31046 -7.04883,-1.97851 -27.51898,-5.60806 -60.22141,-23.19326 -84.04102,-45.24609 -1.36367,-1.26255 -2.09201,-2.00376 -2.58984,-2.61524 0.59897,-0.14643 1.35161,-0.27493 2.39844,-0.43359 5.09804,-0.77287 14.79806,-4.26991 22.23046,-7.96485 11.41487,-5.67538 28.84402,-15.41813 32.11133,-17.96875 0.37642,-0.29385 1.95101,-1.52363 0.47266,-2.80468 -0.70912,-0.61467 -4.83209,-1.64269 -9.18945,-2.59766 -27.92961,-6.12357 -50.92882,-19.56808 -75.75977,-44.41406 l -10,-10.00586 0.14258,-0.0254 c 1.63484,-0.28341 5.69102,-0.90867 9.00195,-1.38477 8.86743,-1.27619 20.88277,-5.50112 31.20313,-10.93164 4.39964,-2.31572 8.00234,-4.32361 9.02929,-5.21484 0.11411,-0.099 0.63672,-0.52096 0.63672,-1.28321 0,-0.75371 -0.54244,-1.20529 -0.69726,-1.31836 -0.76769,-0.56061 -3.43566,-1.27997 -6.3418,-1.89648 -14.99148,-3.18053 -27.71406,-8.69362 -39.65625,-17.17383 -6.98057,-4.95666 -22.19906,-19.7251 -28.38672,-27.56836 -9.3042,-11.79229 -19.86496,-28.44948 -26.88086,-42.40429 l -1.90039,-3.78125 c 1.54546,-0.0377 3.62997,-0.5969 3.60156,-2.44922 -0.0102,-0.51826 -1.17327,-7.94485 -2.5625,-16.23633 -0.96172,-5.73953 -1.60678,-9.87162 -1.98437,-12.44727 1.51943,0.76188 3.42695,1.73871 5.7832,2.9961 4.09094,2.18314 7.48306,3.90527 8.70117,4.24219 0.13535,0.0374 0.83937,0.29409 1.52539,-0.2754 1.20551,-0.99546 0.56896,-1.32868 0.5586,-1.51953 -0.0933,-1.71765 -1.20396,-8.92832 -2.66406,-17.53711 l -2.81641,-16.60156 12.07422,-11.95703 c 6.25737,-6.19733 11.34717,-11.38485 12.38086,-12.67383 0.10808,-0.13478 0.99804,-1.2337 0.0176,-2.2168 -0.84317,-0.8431 -0.82949,-0.44274 -0.99414,-0.47851 -1.48182,-0.32196 -8.06339,-1.34845 -15.88476,-2.49023 -8.68242,-1.26688 -16.67519,-2.49908 -17.26172,-2.62696 0,0 0.17926,0.10139 -0.0684,-0.17187 -1.18727,-1.31025 -3.56234,-5.63346 -8.28125,-15.20703 -3.86958,-7.8513 -7.216,-14.34504 -8.21289,-15.81836 -0.10627,-0.15706 -0.38122,-0.87305 -1.43164,-0.87305 z M 265.01953,714.27734 c 0.0142,0.005 0.09,0.0675 0.10352,0.0723 l -0.0312,-0.0137 -0.0645,-0.0332 z"
       inkscape:path-effect="#path-effect832"
       inkscape:original-d="m 466.69336,223.54883 c -0.26284,0 -3.83598,6.99982 -7.94336,15.55273 -4.98858,10.38827 -7.97266,15.7529 -8.98438,16.16016 -0.83262,0.33512 -7.95709,1.50394 -15.83398,2.5957 -7.8765,1.09176 -15.25655,2.21325 -16.40039,2.49414 -2.01629,0.49507 -1.69114,0.8991 10.58789,13.16211 l 12.66602,12.65039 -2.85157,16.36719 c -1.5682,9.00174 -2.76956,16.89688 -2.67187,17.54492 0.13849,0.91554 2.016,0.20277 8.41601,-3.19336 4.53086,-2.40433 8.3233,-4.28404 8.42969,-4.17773 0.10627,0.10621 -0.96372,7.14055 -2.38086,15.63086 -3.02567,18.12565 -2.889,16.5664 -1.46094,16.5664 1.51968,0 -0.80259,4.57294 -9.46874,18.64063 -16.41751,26.65066 -35.18506,47.38164 -54.82813,60.56055 -9.57778,6.42637 -18.1411,10.56069 -29.49414,14.24218 l -8.73047,2.83203 10.09961,5.0625 c 12.55739,6.29532 19.3459,8.9304 28.41211,11.02539 l 7.08008,1.63477 -3.7793,4.36133 c -4.58574,5.2935 -16.15664,15.99571 -24.85352,22.98828 -14.87808,11.96141 -33.31733,22.26655 -49.74609,27.80078 -4.76766,1.60589 -8.94826,3.16891 -9.29101,3.47266 -0.88731,0.7874 8.9116,8.70376 16.44726,13.28711 10.00523,6.08528 18.98445,9.3945 32.68945,12.05078 1.74806,0.33878 1.75346,0.37342 0.375,1.90625 -2.2134,2.46171 -14.36779,12.71018 -21.13281,17.81836 -19.23517,14.52304 -41.81707,26.34169 -62.24023,32.57422 -2.79821,0.85395 -5.08789,1.84232 -5.08789,2.19922 0,0.96023 10.68256,10.76281 16.37109,15.02343 11.06127,8.28336 25.04953,15.16789 36.28711,17.85742 l 5.54883,1.32813 -1.78125,1.41406 c -28.88697,22.98583 -52.34542,36.36705 -79.60352,45.40235 -4.66391,1.54631 -8.47851,3.04976 -8.47851,3.34179 0,1.18895 10.13355,13.08744 14.88476,17.47656 5.15712,4.76387 15.88756,13.09168 17.67774,13.71876 1.32425,0.4633 -0.70803,2.12023 -12.58789,10.25585 -25.51474,17.47299 -51.98792,30.87253 -76.68555,38.81836 -4.03789,1.2991 -7.34552,2.76466 -7.34961,3.25586 -0.005,0.49067 0.89837,3.03418 2.00586,5.65235 7.79883,18.43794 25.90331,33.08551 47.52734,38.45508 9.49668,2.35797 24.3018,2.31278 33.72266,-0.10547 6.57205,-1.68661 6.78669,-1.69602 7.75781,-0.32618 10.43691,14.72017 16.80446,19.46849 29.875,22.27149 5.99592,1.28615 20.60016,0.2915 29.39453,-2.00195 4.10105,-1.06959 7.6985,-2.09477 7.99414,-2.27735 0.29479,-0.18229 3.65831,2.03578 7.47461,4.92969 19.58871,14.8511 35.35364,19.59756 52.9668,15.94336 7.70896,-1.59897 18.69825,-6.28719 25.16797,-10.73828 5.49478,-3.78045 6.01505,-3.01963 5.77539,8.42969 -0.43692,20.86077 -3.916,54.83938 -6.49219,63.40039 l -1.03906,3.44726 3.50195,1.9043 c 6.28177,3.41872 20.60042,6.888 34.37305,8.32617 5.87135,0.61265 31.02086,-0.27592 39.19531,-1.38477 11.22245,-1.52208 21.77493,-3.43791 22.95313,-4.16601 0.76299,-0.47176 0.39388,-2.90272 -1.73438,-11.42774 -4.43174,-17.75064 -11.04297,-52.83005 -11.04297,-58.58984 0,-1.37704 0.6129,-1.21919 7.14649,1.83398 17.80923,8.32232 35.07521,10.35071 50.21289,5.89844 9.43613,-2.77526 23.42215,-11.89771 29.54883,-19.27344 l 2.5625,-3.08398 8.03711,3.14258 c 11.22335,4.38784 18.42572,6.1143 27.61328,6.61719 13.19159,0.72208 23.40309,-2.15461 34.92383,-9.83985 6.62342,-4.41815 15.81987,-13.27795 21.01757,-20.24609 1.9506,-2.61536 3.67363,-4.21274 4.35743,-4.04297 0.6222,0.15452 4.18302,1.20153 7.91406,2.32812 8.97343,2.7102 22.47799,3.43629 29.77148,1.59961 8.34976,-2.10269 14.08267,-5.46721 20.72852,-12.16406 5.9577,-6.00336 7.6445,-8.53728 19.01953,-28.58203 l 3.82812,-6.74609 -12.55468,-3.17383 c -19.56841,-4.94728 -33.95634,-10.34611 -52.125,-19.5586 -13.19187,-6.6888 -27.71153,-15.57489 -39.08985,-23.92187 l -4.03906,-2.96289 6.67773,-3.21094 c 3.67291,-1.76586 9.20726,-5.00858 12.29883,-7.20508 5.20852,-3.70059 25.26172,-22.4746 24.6543,-23.08203 -0.14815,-0.14816 -5.49531,-1.58812 -11.88086,-3.19922 -14.91687,-3.76434 -23.81975,-7.07283 -38.74609,-14.39843 -12.19956,-5.98787 -25.70909,-14.34371 -36.63672,-22.66211 -5.41409,-4.12145 -6.70676,-5.95533 -4.20899,-5.97461 0.49367,-0.005 4.49638,-1.47725 8.89258,-3.27344 9.31083,-3.80405 18.83789,-9.11454 27.68555,-15.42969 6.31601,-4.50888 22.73437,-18.69127 22.73437,-19.63867 0,-0.27922 -2.96676,-1.11233 -6.59375,-1.85156 -27.8011,-5.66555 -60.78673,-23.41688 -84.76562,-45.61719 -4.83107,-4.4728 -4.79305,-4.83351 0.60937,-5.65234 4.9017,-0.7431 14.41526,-4.16133 21.78321,-7.82422 12.64313,-6.28607 32.87945,-17.74713 32.26757,-18.27735 -0.33475,-0.29016 -4.17077,-1.30973 -8.52343,-2.26367 -28.28301,-6.20105 -51.50347,-19.80473 -76.50586,-44.82226 l -12.0586,-12.06641 3.01368,-0.52344 c 1.6579,-0.2874 5.72813,-0.91368 9.04492,-1.39062 8.66015,-1.24636 20.49922,-5.39906 30.71289,-10.77344 4.87246,-2.56459 8.85937,-4.88677 8.85937,-5.16016 0,-0.27361 -2.62913,-1.05478 -5.84179,-1.73632 -15.19068,-3.22279 -28.09346,-8.81109 -40.2168,-17.41993 -7.13332,-5.06513 -22.42505,-19.91231 -28.69922,-27.86523 -9.36729,-11.87225 -19.98651,-28.62078 -27.04492,-42.66016 l -2.98438,-5.9375 h 2.26954 c 1.32137,0 2.26426,-0.39463 2.25585,-0.94336 -0.0102,-0.51826 -1.15179,-7.72416 -2.54101,-16.01562 -1.38926,-8.29108 -2.46218,-15.15585 -2.38281,-15.25391 0.0808,-0.0987 3.85138,1.8006 8.38281,4.21875 4.53069,2.41782 8.37996,4.27819 8.55273,4.13477 0.17339,-0.14318 -1.01186,-8.08153 -2.63281,-17.63867 l -2.94726,-17.375 12.63085,-12.50977 c 6.94709,-6.88043 12.52462,-12.61762 12.39454,-12.74805 -0.1303,-0.13029 -7.34405,-1.27311 -16.0293,-2.54101 -8.68525,-1.26729 -16.49995,-2.45783 -17.36524,-2.64649 -1.18956,-0.2593 -3.47902,-4.21008 -9.38281,-16.1875 -4.29511,-8.71468 -8.02581,-15.84765 -8.28906,-15.84765 z" />
  </g>
</svg>
