<?xml version="1.0" encoding="UTF-8" standalone="no"?>
<svg
   xmlns:dc="http://purl.org/dc/elements/1.1/"
   xmlns:cc="http://creativecommons.org/ns#"
   xmlns:rdf="http://www.w3.org/1999/02/22-rdf-syntax-ns#"
   xmlns:svg="http://www.w3.org/2000/svg"
   xmlns="http://www.w3.org/2000/svg"
   xmlns:sodipodi="http://sodipodi.sourceforge.net/DTD/sodipodi-0.dtd"
   xmlns:inkscape="http://www.inkscape.org/namespaces/inkscape"
   version="1.1"
   id="svg867"
   width="927"
   height="1200"
   viewBox="0 0 927 1200"
   sodipodi:docname="ESP8266_Xmas_Filled_Zone_custom.svg"
   inkscape:version="1.0.2 (e86c870879, 2021-01-15)"
   inkscape:export-filename="/home/domi/KiCad/ESP8266XmasTree/Graphics/XMas_Tree/ESP8266_Xmas_Tree-Silkscreen_custom.png"
   inkscape:export-xdpi="96"
   inkscape:export-ydpi="96">
  <metadata
     id="metadata873">
    <rdf:RDF>
      <cc:Work
         rdf:about="">
        <dc:format>image/svg+xml</dc:format>
        <dc:type
           rdf:resource="http://purl.org/dc/dcmitype/StillImage" />
        <dc:title />
      </cc:Work>
    </rdf:RDF>
  </metadata>
  <defs
     id="defs871" />
  <sodipodi:namedview
     pagecolor="#ffffff"
     bordercolor="#666666"
     borderopacity="1"
     objecttolerance="10"
     gridtolerance="10"
     guidetolerance="10"
     inkscape:pageopacity="0"
     inkscape:pageshadow="2"
     inkscape:window-width="1916"
     inkscape:window-height="1040"
     id="namedview869"
     showgrid="false"
     inkscape:zoom="1.0005561"
     inkscape:cx="390.61837"
     inkscape:cy="623.56114"
     inkscape:window-x="0"
     inkscape:window-y="18"
     inkscape:window-maximized="0"
     inkscape:current-layer="g999"
     inkscape:document-rotation="0" />
  <g
     inkscape:label="edge_cuts"
     id="g999"
     style="display:inline;opacity:1"
     inkscape:groupmode="layer">
    <path
       id="path997"
       style="display:inline;fill:none;stroke:#fe0000;stroke-width:0.755906;stroke-miterlimit:4;stroke-dasharray:none;stroke-opacity:1"
       inkscape:label="path997"
       d="m 466.69336,223.54883 c -0.26284,0 -3.83598,6.99982 -7.94336,15.55273 -4.98858,10.38827 -7.97266,15.7529 -8.98438,16.16016 -0.83262,0.33512 -7.95709,1.50394 -15.83398,2.5957 -7.8765,1.09176 -15.25655,2.21325 -16.40039,2.49414 -2.01629,0.49507 -1.69114,0.8991 10.58789,13.16211 l 12.66602,12.65039 -2.85157,16.36719 c -1.5682,9.00174 -2.76956,16.89688 -2.67187,17.54492 0.13849,0.91554 2.016,0.20277 8.41601,-3.19336 4.53086,-2.40433 8.3233,-4.28404 8.42969,-4.17773 0.10627,0.10621 -0.96372,7.14055 -2.38086,15.63086 -3.02567,18.12565 -2.889,16.5664 -1.46094,16.5664 1.51968,0 -0.80259,4.57294 -9.46874,18.64063 -16.41751,26.65066 -35.18506,47.38164 -54.82813,60.56055 -9.57778,6.42637 -18.1411,10.56069 -29.49414,14.24218 l -8.73047,2.83203 10.09961,5.0625 c 12.55739,6.29532 19.3459,8.9304 28.41211,11.02539 l 7.08008,1.63477 -3.7793,4.36133 c -4.58574,5.2935 -16.15664,15.99571 -24.85352,22.98828 -14.87808,11.96141 -33.31733,22.26655 -49.74609,27.80078 -4.76766,1.60589 -8.94826,3.16891 -9.29101,3.47266 -0.88731,0.7874 8.9116,8.70376 16.44726,13.28711 10.00523,6.08528 18.98445,9.3945 32.68945,12.05078 1.74806,0.33878 1.75346,0.37342 0.375,1.90625 -2.2134,2.46171 -14.36779,12.71018 -21.13281,17.81836 -19.23517,14.52304 -41.81707,26.34169 -62.24023,32.57422 -2.79821,0.85395 -5.08789,1.84232 -5.08789,2.19922 0,0.96023 10.68256,10.76281 16.37109,15.02343 11.06127,8.28336 25.04953,15.16789 36.28711,17.85742 l 5.54883,1.32813 -1.78125,1.41406 c -28.88697,22.98583 -52.34542,36.36705 -79.60352,45.40235 -4.66391,1.54631 -8.47851,3.04976 -8.47851,3.34179 0,1.18895 10.13355,13.08744 14.88476,17.47656 5.15712,4.76387 15.88756,13.09168 17.67774,13.71876 1.32425,0.4633 -0.70803,2.12023 -12.58789,10.25585 -25.51474,17.47299 -51.98792,30.87253 -76.68555,38.81836 -4.03789,1.2991 -7.34552,2.76466 -7.34961,3.25586 -0.005,0.49067 0.89837,3.03418 2.00586,5.65235 7.79883,18.43794 25.90331,33.08551 47.52734,38.45508 9.49668,2.35797 24.3018,2.31278 33.72266,-0.10547 6.57205,-1.68661 6.78669,-1.69602 7.75781,-0.32618 10.43691,14.72017 16.80446,19.46849 29.875,22.27149 5.99592,1.28615 20.60016,0.2915 29.39453,-2.00195 4.10105,-1.06959 7.6985,-2.09477 7.99414,-2.27735 0.29479,-0.18229 3.65831,2.03578 7.47461,4.92969 19.58871,14.8511 35.35364,19.59756 52.9668,15.94336 7.70896,-1.59897 18.69825,-6.28719 25.16797,-10.73828 5.49478,-3.78045 6.01505,-3.01963 5.77539,8.42969 -0.43692,20.86077 -3.916,54.83938 -6.49219,63.40039 l -1.03906,3.44726 3.50195,1.9043 c 6.28177,3.41872 20.60042,6.888 34.37305,8.32617 5.87135,0.61265 31.02086,-0.27592 39.19531,-1.38477 11.22245,-1.52208 21.77493,-3.43791 22.95313,-4.16601 0.76299,-0.47176 0.39388,-2.90272 -1.73438,-11.42774 -4.43174,-17.75064 -11.04297,-52.83005 -11.04297,-58.58984 0,-1.37704 0.6129,-1.21919 7.14649,1.83398 17.80923,8.32232 35.07521,10.35071 50.21289,5.89844 9.43613,-2.77526 23.42215,-11.89771 29.54883,-19.27344 l 2.5625,-3.08398 8.03711,3.14258 c 11.22335,4.38784 18.42572,6.1143 27.61328,6.61719 13.19159,0.72208 23.40309,-2.15461 34.92383,-9.83985 6.62342,-4.41815 15.81987,-13.27795 21.01757,-20.24609 1.9506,-2.61536 3.67363,-4.21274 4.35743,-4.04297 0.6222,0.15452 4.18302,1.20153 7.91406,2.32812 8.97343,2.7102 22.47799,3.43629 29.77148,1.59961 8.34976,-2.10269 14.08267,-5.46721 20.72852,-12.16406 5.9577,-6.00336 7.6445,-8.53728 19.01953,-28.58203 l 3.82812,-6.74609 -12.55468,-3.17383 c -19.56841,-4.94728 -33.95634,-10.34611 -52.125,-19.5586 -13.19187,-6.6888 -27.71153,-15.57489 -39.08985,-23.92187 l -4.03906,-2.96289 6.67773,-3.21094 c 3.67291,-1.76586 9.20726,-5.00858 12.29883,-7.20508 5.20852,-3.70059 25.26172,-22.4746 24.6543,-23.08203 -0.14815,-0.14816 -5.49531,-1.58812 -11.88086,-3.19922 -14.91687,-3.76434 -23.81975,-7.07283 -38.74609,-14.39843 -12.19956,-5.98787 -25.70909,-14.34371 -36.63672,-22.66211 -5.41409,-4.12145 -6.70676,-5.95533 -4.20899,-5.97461 0.49367,-0.005 4.49638,-1.47725 8.89258,-3.27344 9.31083,-3.80405 18.83789,-9.11454 27.68555,-15.42969 6.31601,-4.50888 22.73437,-18.69127 22.73437,-19.63867 0,-0.27922 -2.96676,-1.11233 -6.59375,-1.85156 -27.8011,-5.66555 -60.78673,-23.41688 -84.76562,-45.61719 -4.83107,-4.4728 -4.79305,-4.83351 0.60937,-5.65234 4.9017,-0.7431 14.41526,-4.16133 21.78321,-7.82422 12.64313,-6.28607 32.87945,-17.74713 32.26757,-18.27735 -0.33475,-0.29016 -4.17077,-1.30973 -8.52343,-2.26367 -28.28301,-6.20105 -51.50347,-19.80473 -76.50586,-44.82226 l -12.0586,-12.06641 3.01368,-0.52344 c 1.6579,-0.2874 5.72813,-0.91368 9.04492,-1.39062 8.66015,-1.24636 20.49922,-5.39906 30.71289,-10.77344 4.87246,-2.56459 8.85937,-4.88677 8.85937,-5.16016 0,-0.27361 -2.62913,-1.05478 -5.84179,-1.73632 -15.19068,-3.22279 -28.09346,-8.81109 -40.2168,-17.41993 -7.13332,-5.06513 -22.42505,-19.91231 -28.69922,-27.86523 -9.36729,-11.87225 -19.98651,-28.62078 -27.04492,-42.66016 l -2.98438,-5.9375 h 2.26954 c 1.32137,0 2.26426,-0.39463 2.25585,-0.94336 -0.0102,-0.51826 -1.15179,-7.72416 -2.54101,-16.01562 -1.38926,-8.29108 -2.46218,-15.15585 -2.38281,-15.25391 0.0808,-0.0987 3.85138,1.8006 8.38281,4.21875 4.53069,2.41782 8.37996,4.27819 8.55273,4.13477 0.17339,-0.14318 -1.01186,-8.08153 -2.63281,-17.63867 l -2.94726,-17.375 12.63085,-12.50977 c 6.94709,-6.88043 12.52462,-12.61762 12.39454,-12.74805 -0.1303,-0.13029 -7.34405,-1.27311 -16.0293,-2.54101 -8.68525,-1.26729 -16.49995,-2.45783 -17.36524,-2.64649 -1.18956,-0.2593 -3.47902,-4.21008 -9.38281,-16.1875 -4.29511,-8.71468 -8.02581,-15.84765 -8.28906,-15.84765 z" />
  </g>
</svg>
