<?xml version="1.0" encoding="UTF-8" standalone="no"?>
<svg
   xmlns:dc="http://purl.org/dc/elements/1.1/"
   xmlns:cc="http://creativecommons.org/ns#"
   xmlns:rdf="http://www.w3.org/1999/02/22-rdf-syntax-ns#"
   xmlns:svg="http://www.w3.org/2000/svg"
   xmlns="http://www.w3.org/2000/svg"
   xmlns:sodipodi="http://sodipodi.sourceforge.net/DTD/sodipodi-0.dtd"
   xmlns:inkscape="http://www.inkscape.org/namespaces/inkscape"
   version="1.1"
   id="svg867"
   width="927"
   height="1200"
   viewBox="0 0 927 1200"
   sodipodi:docname="Xmas_Tree.svg"
   inkscape:version="1.0.2 (e86c870879, 2021-01-15)">
  <metadata
     id="metadata873">
    <rdf:RDF>
      <cc:Work
         rdf:about="">
        <dc:format>image/svg+xml</dc:format>
        <dc:type
           rdf:resource="http://purl.org/dc/dcmitype/StillImage" />
        <dc:title></dc:title>
      </cc:Work>
    </rdf:RDF>
  </metadata>
  <defs
     id="defs871" />
  <sodipodi:namedview
     pagecolor="#ffffff"
     bordercolor="#666666"
     borderopacity="1"
     objecttolerance="10"
     gridtolerance="10"
     guidetolerance="10"
     inkscape:pageopacity="0"
     inkscape:pageshadow="2"
     inkscape:window-width="1916"
     inkscape:window-height="1040"
     id="namedview869"
     showgrid="false"
     inkscape:zoom="4.0022244"
     inkscape:cx="634.45807"
     inkscape:cy="731.12882"
     inkscape:window-x="1920"
     inkscape:window-y="18"
     inkscape:window-maximized="0"
     inkscape:current-layer="g999" />
  <g
     inkscape:groupmode="layer"
     inkscape:label="silkscreen"
     id="g875"
     style="display:inline">
    <path
       id="path879"
       style="fill:#000000;stroke-width:0.753763"
       d="m 466.69407,223.54973 c -0.26284,0 -3.83743,6.99886 -7.94481,15.55177 -4.98858,10.38827 -7.9717,15.75262 -8.98342,16.15988 -0.83263,0.33512 -7.95748,1.50373 -15.83437,2.59549 -7.8765,1.09176 -15.25709,2.21427 -16.40093,2.49516 -2.01629,0.49507 -1.6913,0.8978 10.58773,13.16081 l 12.66638,12.6515 -2.85012,16.36762 c -1.5682,9.00174 -2.77131,16.89685 -2.67362,17.54489 0.13849,0.91554 2.0165,0.20171 8.41651,-3.19442 4.53086,-2.40433 8.32451,-4.28425 8.4309,-4.17794 0.10627,0.10621 -0.96475,7.14096 -2.38189,15.63127 -3.02567,18.12565 -2.88824,16.56572 -1.46016,16.56572 1.51968,0 -0.80315,4.57461 -9.46932,18.6423 -16.41751,26.65066 -35.18554,47.38054 -54.82861,60.55945 -9.57778,6.42637 -18.14144,10.56143 -29.49448,14.24292 l -8.72987,2.83087 10.10053,5.06299 c 12.55739,6.29532 19.34498,8.92988 28.41119,11.02488 l 7.07951,1.6353 -3.77781,4.36079 c -4.58574,5.2935 -16.15698,15.99646 -24.85386,22.98903 -14.87808,11.96141 -33.31814,22.26701 -49.7469,27.80124 -4.76766,1.60589 -8.94807,3.16898 -9.29082,3.47273 -0.88731,0.7874 8.91116,8.70295 16.44682,13.2863 10.00523,6.08528 18.98418,9.3949 32.68918,12.05118 1.74806,0.33878 1.75497,0.37364 0.37651,1.90647 -2.2134,2.46171 -14.36874,12.70928 -21.13376,17.81746 -19.23517,14.52304 -41.81661,26.34151 -62.23977,32.57404 -2.79821,0.85395 -5.08771,1.84377 -5.08771,2.20066 0,0.96024 10.6817,10.76298 16.37023,15.0236 11.06127,8.28336 25.04949,15.16745 36.28707,17.85698 l 5.54865,1.32796 -1.78008,1.41445 c -28.88697,22.98583 -52.34506,36.36565 -79.60316,45.40095 -4.66391,1.54631 -8.4797,3.04994 -8.4797,3.34197 0,1.18895 10.1338,13.08827 14.88501,17.47741 5.15712,4.76387 15.88858,13.0905 17.67876,13.71757 1.32425,0.4633 -0.70953,2.12061 -12.58939,10.25623 -25.51474,17.47299 -51.98821,30.87338 -76.68584,38.81921 -4.03789,1.2991 -7.34488,2.76374 -7.34897,3.25494 -0.005,0.49067 0.89903,3.03473 2.00652,5.6529 7.79883,18.43794 25.90309,33.08602 47.52712,38.45558 9.49668,2.35799 24.30137,2.312 33.72223,-0.10625 6.57205,-1.68661 6.78692,-1.69495 7.75804,-0.32511 10.43691,14.72017 16.80514,19.4674 29.87568,22.2704 5.99592,1.28615 20.59885,0.29138 29.39322,-2.00207 4.10105,-1.06959 7.69828,-2.09488 7.99392,-2.27746 0.29479,-0.18229 3.65863,2.03651 7.47493,4.93042 19.58871,14.8511 35.35493,19.59733 52.96809,15.94313 7.70896,-1.59897 18.69691,-6.28803 25.16663,-10.73912 5.49478,-3.78045 6.01627,-3.01967 5.77661,8.42964 -0.43692,20.86079 -3.91751,54.84124 -6.4937,63.40225 l -1.03779,3.4466 3.50223,1.90484 c 6.28177,3.41872 20.60037,6.88683 34.373,8.325 5.87135,0.61265 31.02021,-0.27528 39.19466,-1.38413 11.22245,-1.52208 21.77521,-3.43777 22.95341,-4.16587 0.76299,-0.47176 0.39434,-2.90217 -1.73392,-11.42719 -4.43174,-17.75064 -11.04401,-52.83009 -11.04401,-58.58988 0,-1.37704 0.61377,-1.22033 7.14736,1.83286 17.80923,8.32232 35.07546,10.35113 50.21314,5.89886 9.43613,-2.77526 23.42214,-11.89769 29.54882,-19.27341 l 2.56183,-3.084 8.03771,3.14319 c 11.22335,4.38784 18.42425,6.11411 27.61181,6.617 13.19159,0.72208 23.40428,-2.15611 34.92501,-9.84135 6.62344,-4.41815 15.82023,-13.27635 21.01793,-20.24449 1.9506,-2.61536 3.67211,-4.21414 4.35589,-4.04437 0.6222,0.15452 4.18324,1.20221 7.91428,2.32882 8.97343,2.71018 22.47923,3.43572 29.77272,1.59904 8.34976,-2.10269 14.08222,-5.46612 20.72807,-12.16297 5.9577,-6.00336 7.64476,-8.53852 19.01979,-28.58327 l 3.82798,-6.74519 -12.5548,-3.17429 c -19.56841,-4.94728 -33.95688,-10.34627 -52.12554,-19.55876 -13.19187,-6.68882 -27.71022,-15.57391 -39.08854,-23.92089 l -4.03965,-2.96325 6.67768,-3.2111 c 3.67291,-1.76586 9.20665,-5.00787 12.29822,-7.20437 5.20852,-3.70059 25.26159,-22.47599 24.65417,-23.08342 -0.14815,-0.14816 -5.49444,-1.58771 -11.87999,-3.19881 -14.91687,-3.76434 -23.81946,-7.07192 -38.7458,-14.39752 -12.19956,-5.98787 -25.70942,-14.34536 -36.63705,-22.66376 -5.41409,-4.12145 -6.70682,-5.95475 -4.20905,-5.97403 0.49367,-0.005 4.49546,-1.47651 8.89166,-3.2727 9.31083,-3.80405 18.8393,-9.11432 27.68696,-15.42947 6.31601,-4.50888 22.73423,-18.6912 22.73423,-19.6386 0,-0.27922 -2.96799,-1.11285 -6.59498,-1.85208 -27.8011,-5.66555 -60.78624,-23.41707 -84.76513,-45.61738 -4.83107,-4.4728 -4.79299,-4.83385 0.60943,-5.65268 4.9017,-0.7431 14.41585,-4.16024 21.7838,-7.82313 12.64313,-6.28607 32.87824,-17.74797 32.26636,-18.27819 -0.33475,-0.29016 -4.17099,-1.30862 -8.52365,-2.26256 -28.28301,-6.20105 -51.5021,-19.80492 -76.50449,-44.82245 l -12.05991,-12.06747 3.01499,-0.52259 c 1.6579,-0.2874 5.72813,-0.91384 9.04492,-1.39078 8.66015,-1.24636 20.49826,-5.39896 30.71193,-10.77334 4.87246,-2.56459 8.85944,-4.88638 8.85944,-5.15977 0,-0.27361 -2.62906,-1.05567 -5.84172,-1.73721 -15.19068,-3.22279 -28.09264,-8.81128 -40.21598,-17.42012 -7.13332,-5.06513 -22.42531,-19.91215 -28.69948,-27.86507 -9.36729,-11.87225 -19.98633,-28.62161 -27.04474,-42.66099 l -2.98439,-5.9375 h 2.26847 c 1.32137,0 2.26424,-0.39332 2.25583,-0.94205 -0.0102,-0.51826 -1.1518,-7.7255 -2.54102,-16.01696 -1.38926,-8.29108 -2.46141,-15.15457 -2.38204,-15.25263 0.0808,-0.0987 3.85118,1.79957 8.38261,4.21772 4.53069,2.41782 8.38,4.2784 8.55277,4.13498 0.17339,-0.14318 -1.01135,-8.08043 -2.6323,-17.63757 l -2.94687,-17.37584 12.63073,-12.51013 c 6.94709,-6.88043 12.52418,-12.61715 12.3941,-12.74758 -0.1303,-0.13029 -7.34341,-1.27311 -16.02866,-2.54101 -8.68525,-1.26729 -16.50024,-2.45834 -17.36553,-2.647 -1.18956,-0.2593 -3.47981,-4.21009 -9.3836,-16.18751 -4.29511,-8.71468 -8.02496,-15.84617 -8.28821,-15.84617 z m 0.0806,20.3598 c 0.23662,-0.006 2.50967,4.37307 5.05095,9.72801 2.89704,6.10415 5.12678,9.8786 5.97695,10.11674 0.74598,0.2087 5.59578,0.95509 10.77749,1.66018 5.18201,0.70535 9.57438,1.42247 9.76075,1.59316 0.18618,0.17034 -3.17328,3.83259 -7.46567,8.13957 l -7.8038,7.83181 1.73291,10.62707 c 0.95334,5.84482 1.60064,10.74936 1.43692,10.90007 -0.16398,0.15051 -3.94535,-1.69246 -8.40174,-4.0942 -5.54988,-2.99098 -8.10284,-4.02384 -8.10284,-3.27846 0,0.59862 1.35694,9.41787 3.01515,19.59717 1.65798,10.17945 3.0149,18.64651 3.0149,18.81692 0,0.17081 -4.09752,0.30909 -9.10527,0.30909 h -9.10366 l 0.39917,-2.07275 c 1.88532,-9.78489 5.89333,-36.47458 5.5323,-36.83559 -0.2517,-0.25198 -4.03574,1.43706 -8.4106,3.75228 -4.51878,2.39152 -7.96112,3.81316 -7.97166,3.29029 -0.0117,-0.50628 0.73743,-5.42422 1.66196,-10.92756 l 1.68136,-10.00667 -7.84357,-7.86979 c -4.31356,-4.3283 -7.68997,-7.99736 -7.50362,-8.15289 0.1864,-0.15546 4.57858,-0.86688 9.76035,-1.57943 5.18181,-0.71326 10.11841,-1.576 10.9692,-1.91812 1.00714,-0.40595 3.10987,-3.93566 6.02983,-10.12116 2.4655,-5.22366 4.6761,-9.50122 4.91234,-9.50574 z m 44.04015,163.05656 8.75611,8.36436 c 4.81586,4.60126 11.93868,10.6421 15.82871,13.42491 6.66234,4.76527 20.62777,12.47183 24.7852,13.6763 1.80817,0.52358 1.76291,0.59132 -1.131,1.67515 -11.53776,4.32175 -28.70775,5.68858 -38.61755,3.07402 -5.09665,-1.34475 -11.31023,-4.25411 -14.89768,-6.97513 l -2.2613,-1.71509 -4.8419,3.65065 c -5.99589,4.52069 -12.6047,7.7883 -19.76373,9.77228 -5.3493,1.48258 -17.19943,2.50084 -21.01778,1.80618 -1.86104,-0.33815 -9.60537,-1.63697 -13.93142,-3.29532 -2.47351,-1.18093 -7.60807,-3.67056 -9.88775,-4.93675 -2.23906,-1.24364 -1.30428,-1.50005 -4.32346,-0.38279 -6.2647,1.66 -15.3496,3.45607 -21.5852,3.98295 -8.50393,0.71855 -25.22297,-0.69834 -35.89225,-5.15647 l -2.84102,-1.18619 6.74223,-3.40217 c 19.68247,-9.9299 39.4293,-27.37263 55.71935,-49.21677 2.00966,-2.69445 3.89845,-5.18119 6.81449,-9.34009 l 6.58195,-9.98203 c 3.74753,-5.86793 11.10474,-18.83838 13.08913,-23.07565 l 1.32315,-2.82696 h 6.09354 6.09448 l 4.38837,8.81862 c 5.38206,10.81207 14.02774,25.27217 20.00924,34.01745 m 57.92291,101.54564 c 8.43872,7.84337 32.63282,23.70711 48.65053,29.38058 3.23425,1.14569 5.60877,2.33954 5.27624,2.65397 -0.7586,0.71771 -16.15012,8.41719 -20.20226,10.10637 -8.75567,3.65007 -22.63132,5.20132 -30.60982,3.49033 -2.33894,-0.54788 -4.4746,-1.28955 -6.5609,-1.78704 -2.56254,-0.30089 -7.0364,-0.35786 -10.4444,0.454 -11.05382,3.2719 -14.98165,4.97097 -22.01946,7.42402 -1.19335,0.82596 -4.36962,1.53449 -7.44575,2.39775 -5.41452,1.51931 -16.3365,1.55937 -21.82592,0.0826 -8.27309,-2.2281 -17.68478,-7.74137 -26.36015,-15.44261 l -5.00423,-4.44164 -4.76808,4.46095 c -8.28047,7.74578 -18.59186,11.62413 -30.7841,11.57662 -11.40856,-0.046 -22.20984,-4.298 -27.35979,-10.77308 -1.50549,-1.8927 -2.77134,-3.52055 -2.81332,-3.61719 -0.0427,-0.0962 -2.25849,0.97716 -4.92591,2.38489 -8.85423,4.67305 -14.88507,6.08395 -25.95382,6.07151 -7.94531,-0.0111 -10.93675,-0.33895 -15.81525,-1.74189 -6.53043,-1.8779 -16.65578,-6.37428 -20.9973,-9.32461 l -2.72196,-1.8505 4.31485,-1.75775 c 11.16827,-4.54918 25.2446,-11.64192 35.60118,-20.23144 5.07784,-4.21145 7.27176,-5.52869 15.23351,-12.63434 6.13339,-5.47389 20.91356,-19.9457 22.97872,-22.29116 l 3.75544,-4.26517 c 0,0 4.9789,-0.72505 7.46834,-1.08769 2.489,-0.36257 4.99316,-0.6331 7.46696,-1.08793 2.10006,-0.38611 2.86701,-0.4792 6.25281,-1.3915 5.42385,-1.46145 7.68578,-1.36005 11.20461,-0.11866 8.61182,3.51178 14.49823,5.69122 21.70131,6.59797 12.13985,1.52778 24.60945,-0.79715 36.59178,-6.82078 3.10905,-1.56268 6.49512,-3.52362 7.52432,-4.35723 l 1.87076,-1.51475 4.44001,2.24056 c 2.44194,1.23239 6.75038,2.82888 9.57524,3.54641 5.00973,1.27196 5.27036,1.46019 10.56694,7.66795 2.98647,3.50023 6.80172,7.79854 8.47939,9.55136 m 60.30692,102.17119 c 11.32282,7.55875 31.7832,19.02502 43.79751,23.13387 4.95212,1.69327 9.15584,3.23039 9.34067,3.41518 0.81571,0.81542 -15.09402,11.95516 -23.99747,16.80296 -17.20753,9.36975 -36.41168,13.67709 -50.10864,11.23978 l -6.01541,-1.07016 -5.29096,4.46357 c -6.28665,5.30292 -15.60109,10.08844 -21.87323,11.23859 -9.62558,1.76472 -23.0681,-1.22317 -34.91473,-7.76281 l -5.5413,-3.05882 -10.67454,4.16434 c -5.8713,2.29109 -13.05002,4.90893 -15.95229,5.81827 -6.79509,2.1287 -17.38151,2.66302 -22.76054,1.14822 -5.63425,-1.58661 -12.47598,-4.83229 -19.82573,-9.40434 -6.02396,-3.74714 -6.54168,-3.92965 -8.66767,-3.05332 -10.83262,4.46629 -14.53189,5.43352 -22.26924,5.82385 -9.04837,0.457 -17.347,-0.87516 -25.31667,-4.06604 -2.63932,-1.0568 -4.79894,-2.01322 -4.79894,-2.12431 0,-0.11104 -5.06191,-2.32331 -14.21779,-6.12979 -7.83188,-3.25604 -14.41478,-2.68388 -20.5639,-2.66631 l -3.50213,0.01 -4.49215,-0.6057 c -8.58385,-1.15741 -22.06306,-4.43088 -31.84446,-10.14949 -5.63828,-3.29603 -15.07456,-10.13299 -15.07456,-10.92163 0,-0.29365 2.79814,-1.66941 6.21832,-3.05606 8.5296,-3.45819 22.35113,-10.17309 30.24532,-15.36937 l 15.11722,-9.95078 c 3.50568,-2.30758 6.28746,-4.92664 10.22568,-8.05671 3.93806,-3.12994 11.20152,-9.42187 16.14071,-13.98213 8.25992,-7.62719 9.27466,-8.3313 12.64723,-8.77873 2.0165,-0.26723 6.50052,-1.48702 9.96467,-2.70988 l 6.29953,-2.22321 4.93598,3.30936 c 8.74759,5.86591 16.66193,8.1467 28.4009,8.18399 12.11288,0.0402 21.47411,-2.75332 30.97807,-9.24088 l 4.39321,-2.99894 5.86787,4.2162 c 12.46129,8.9501 23.84637,13.11489 36.01891,13.17732 7.05228,0.0379 11.45737,-0.45357 17.28496,-2.22133 7.83825,-1.97318 13.68875,-3.82124 17.21917,-5.33291 4.12613,-1.76675 6.06065,-3.06305 9.47973,-3.19886 4.75998,-0.18907 8.96169,0.46445 11.17106,1.25711 1.74118,0.62469 5.32439,1.34146 10.53547,6.17212 3.93493,3.64796 27.8119,21.68695 30.51388,23.94519 m 49.35663,96.68579 c 3.723,2.14857 12.42716,6.13051 17.21861,8.0476 4.65971,1.86438 11.23562,4.16477 14.61403,5.11165 3.37779,0.94656 6.14184,1.96225 6.14184,2.2568 0,0.29415 -2.32363,2.5348 -5.16283,4.9788 -15.41506,13.26692 -27.52941,17.80684 -50.09575,18.77401 l -10.40965,0.44627 -2.27472,4.5029 c -4.12754,8.17762 -11.2867,14.42703 -19.31005,16.85348 -3.57772,1.08198 -15.36777,1.51633 -17.6273,0.64895 -6.27551,-0.35562 -9.19102,-0.45949 -14.201,-2.23822 -6.53376,-0.9922 -9.84537,-0.89605 -17.09386,3.64845 l -7.37045,5.37528 c -1.72827,1.26042 -8.23457,4.22027 -10.40877,5.05077 -3.85987,1.47485 -13.67036,2.43768 -16.76774,1.64592 -5.71816,-1.46162 -12.78989,-4.222 -22.32813,-8.7153 l -11.02175,-5.19082 -4.42997,2.63819 c -10.81909,6.4448 -24.61478,10.97766 -33.41038,10.97766 -9.39636,0 -14.5501,-1.99683 -31.31831,-12.13887 l -9.79847,-5.92699 -7.16057,2.28299 c -25.39487,8.09784 -36.87173,5.95276 -53.17852,-9.93672 l -6.07132,-5.91538 -5.23495,1.55757 c -6.67954,1.98663 -21.01433,2.75771 -27.63647,1.48715 -10.90531,-2.09277 -22.66219,-6.89389 -31.58212,-12.89598 -8.3016,-5.58662 -21.9047,-17.47964 -20.96295,-18.32824 0.17896,-0.16157 3.54753,-1.55973 7.4859,-3.10659 13.10144,-5.14462 33.99387,-17.01863 43.43593,-22.77649 9.76165,-5.95276 14.38508,-9.74091 17.80534,-12.38298 3.42025,-2.64206 9.14284,-7.23518 12.71762,-10.20661 0,0 4.43077,-3.35896 6.87105,-4.76604 1.62169,-0.93508 2.44738,-1.01784 4.92669,-1.1342 2.04682,-0.0961 5.35006,0.5383 7.26874,1.27611 3.03167,1.16579 5.57856,2.15003 9.88602,3.85125 2.15985,0.85302 6.02167,2.45427 6.02167,2.45427 l 6.44045,2.07463 c 10.92335,4.47686 15.59471,5.36824 28.2134,5.38369 11.04556,0.0146 11.48293,-0.0484 18.94248,-2.67206 7.48481,-2.63301 7.67239,-2.659 9.50418,-1.32484 4.30532,3.13628 17.33229,9.04475 23.23022,10.53605 11.83249,2.99205 22.29995,1.30176 43.10149,-6.96459 l 7.3445,-2.91946 5.84591,2.91367 c 22.37209,11.1495 41.88207,9.84466 60.11548,-4.02061 l 5.27601,-4.01172 4.52223,0.68172 c 2.48763,0.37487 7.77477,0.4731 11.74928,0.21823 l 7.22671,-0.4639 6.4335,5.15969 M 745.2273,768.89353 c 2.90183,0.7557 5.40144,1.46995 5.55419,1.58666 0.15305,0.11741 -1.33903,3.0959 -3.31655,6.61868 -10.92907,19.47075 -21.15314,26.82995 -37.26904,26.82995 -7.2641,0 -17.4424,-2.21011 -25.7434,-5.59119 l -4.8008,-1.95507 -1.1306,1.69018 c -7.77501,11.61596 -19.26232,23.41111 -27.5615,28.30213 -8.90228,5.24614 -13.5854,6.48844 -24.44618,6.48305 -11.26268,-0.008 -16.37635,-1.22767 -31.16564,-7.44444 l -9.91339,-4.16772 -2.59956,3.21362 c -9.11945,11.27069 -20.36609,19.14721 -31.33199,21.94369 -6.14512,1.56772 -14.02079,2.02577 -20.24917,1.17941 -9.66052,-1.31286 -23.60426,-6.89291 -34.29814,-13.72488 l -4.06031,-2.59368 -6.86928,3.20611 c -27.10956,12.65731 -43.01833,12.26601 -57.5208,-1.4147 -2.90082,-2.73637 -6.22024,-6.3388 -7.37567,-8.00573 -1.15481,-1.66645 -2.40054,-3.03102 -2.76748,-3.03102 -0.36691,0 -2.77964,1.63795 -5.36142,3.63773 -12.84399,9.94831 -23.24362,13.98326 -35.97516,13.96191 -12.98043,-0.0225 -22.28053,-3.88444 -37.67338,-15.65205 -10.09748,-7.71911 -9.28461,-7.45599 -16.27905,-5.29382 -17.75027,5.48728 -32.1523,5.40986 -41.76922,-0.22522 -4.92466,-2.88553 -9.66361,-8.12199 -13.88082,-15.33947 -2.03667,-3.48579 -3.80795,-6.46926 -3.93499,-6.62908 -0.1277,-0.1601 -3.42811,0.7679 -7.336,2.06369 -10.07627,3.34136 -19.56168,4.41953 -28.49054,3.2372 -13.98758,-1.85213 -25.82909,-7.43517 -35.7407,-16.85019 -5.09635,-4.84088 -10.86738,-12.28173 -10.86738,-14.01161 0,-0.39798 0.93275,-1.08302 2.07277,-1.52233 17.69133,-6.81855 24.03938,-9.53735 34.69869,-14.85998 6.92869,-3.46001 15.54183,-8.54698 19.57661,-10.49642 l 9.62577,-4.78143 34.04079,-18.34574 c 14.32647,5.74138 30.39357,7.59891 43.39728,5.01831 l 6.57798,-1.30411 3.96012,3.79517 c 5.31648,5.09719 6.92374,6.29813 12.65135,9.44658 13.15414,7.23035 23.87855,7.85015 42.61006,2.46588 l 8.8753,-2.54952 7.96154,4.92147 c 4.37935,2.7065 10.30741,6.04541 13.17422,7.41916 15.19632,7.283 31.52228,6.14185 51.51499,-3.59753 l 7.85506,-3.82619 9.93133,4.54756 c 11.94181,5.46893 15.58043,6.71939 22.8477,7.84929 9.53657,1.48293 19.83568,-0.88348 29.63279,-6.80714 l 6.12631,-3.94187 5.49009,-3.92613 c 4.80655,-2.06698 3.9735,-4.41414 10.7411,-1.49498 6.10182,1.77577 8.53954,1.84014 11.26617,2.49086 1.6334,0.3897 6.36115,0.71606 10.5068,0.72603 11.93811,0.0289 19.51604,-2.84669 27.6691,-10.49375 2.60769,-2.44597 5.75919,-6.17028 7.00283,-8.27747 2.25587,-3.82307 2.27104,-3.83206 6.19174,-3.84718 2.1619,-0.0107 7.29928,-0.3988 11.41656,-0.86706 l 7.48764,-0.85088 9.44357,6.85303 c 9.51495,6.90378 47.4996,28.82265 56.10215,32.56592 10.86007,5.3788 25.19746,9.44434 33.72556,11.66631 z m -257.096,75.23388 c 0.11678,-0.0121 0.1918,-0.005 0.21945,0.0254 0.21994,0.21961 1.18906,5.85627 2.15499,12.52496 1.90963,13.18039 3.51461,21.68556 7.65242,40.5486 1.48007,6.74749 2.51233,12.44921 2.2922,12.66929 -0.61701,0.617 -13.49502,2.41167 -23.55452,3.28303 -8.53766,0.73948 -20.42004,0.86442 -27.13452,0.28539 -11.943,-1.02981 -27.51533,-4.70329 -27.50705,-6.48921 0.003,-0.50148 0.66639,-5.49152 1.47522,-11.088 1.65818,-11.47713 3.79656,-36.86103 3.79656,-45.06828 0,-2.98713 0.20739,-5.43241 0.46076,-5.43241 0.25297,0 2.88187,1.1933 5.84149,2.64976 13.60156,6.69448 27.86407,6.22309 47.3252,-1.56316 3.27063,-1.3088 6.1597,-2.27088 6.9778,-2.34387 z"
       sodipodi:nodetypes="scsssccccsscsccsccccscccssccsscscccsccssccccccscccsccccccccssssccsssscssscsssccssccscscscsccscccsccscccccscscsccccccscscccccccccsscssccccccccsccccccccccsscssccscscccccccccccccscsccccccccccscccscccssscssscccccccscccscccccscccssccsssscscsssssccccccsccccssscccssscsccscccscscccsccccccccccsscssssccccccccccccccccccscccccccccscccscsccccssccsssccsccccccccccccccscccscsccccccccccssssccsscccc" />
  </g>
  <g
     inkscape:label="edge_cuts"
     id="g999"
     style="display:inline;opacity:1"
     inkscape:groupmode="layer">
    <path
       id="path997"
       style="display:inline;fill:none;stroke:#fe0000;stroke-width:0.75590551;stroke-miterlimit:4;stroke-dasharray:none;stroke-opacity:1"
       d="m 466.69407,223.54973 c -0.26284,0 -3.83743,6.99886 -7.94481,15.55177 -4.98858,10.38827 -7.9717,15.75262 -8.98342,16.15988 -0.83263,0.33512 -7.95748,1.50373 -15.83437,2.59549 -7.8765,1.09176 -15.25709,2.21427 -16.40093,2.49516 -2.01629,0.49507 -1.6913,0.8978 10.58773,13.16081 l 12.66638,12.6515 -2.85012,16.36762 c -1.5682,9.00174 -2.77131,16.89685 -2.67362,17.54489 0.13849,0.91554 2.0165,0.20171 8.41651,-3.19442 4.53086,-2.40433 8.32451,-4.28425 8.4309,-4.17794 0.10627,0.10621 -0.96475,7.14096 -2.38189,15.63127 -3.02567,18.12565 -2.88824,16.56572 -1.46016,16.56572 1.51968,0 -0.80315,4.57461 -9.46932,18.6423 -16.41751,26.65066 -35.18554,47.38054 -54.82861,60.55945 -9.57778,6.42637 -18.14144,10.56143 -29.49448,14.24292 l -8.72987,2.83087 10.10053,5.06299 c 12.55739,6.29532 19.34498,8.92988 28.41119,11.02488 l 7.07951,1.6353 -3.77781,4.36079 c -4.58574,5.2935 -16.15698,15.99646 -24.85386,22.98903 -14.87808,11.96141 -33.31814,22.26701 -49.7469,27.80124 -4.76766,1.60589 -8.94807,3.16898 -9.29082,3.47273 -0.88731,0.7874 8.91116,8.70295 16.44682,13.2863 10.00523,6.08528 18.98418,9.3949 32.68918,12.05118 1.74806,0.33878 1.75497,0.37364 0.37651,1.90647 -2.2134,2.46171 -14.36874,12.70928 -21.13376,17.81746 -19.23517,14.52304 -41.81661,26.34151 -62.23977,32.57404 -2.79821,0.85395 -5.08771,1.84377 -5.08771,2.20066 0,0.96024 10.6817,10.76298 16.37023,15.0236 11.06127,8.28336 25.04949,15.16745 36.28707,17.85698 l 5.54865,1.32796 -1.78008,1.41445 c -28.88697,22.98583 -52.34506,36.36565 -79.60316,45.40095 -4.66391,1.54631 -8.4797,3.04994 -8.4797,3.34197 0,1.18895 10.1338,13.08827 14.88501,17.47741 5.15712,4.76387 15.88858,13.0905 17.67876,13.71757 1.32425,0.4633 -0.70953,2.12061 -12.58939,10.25623 -25.51474,17.47299 -51.98821,30.87338 -76.68584,38.81921 -4.03789,1.2991 -7.34488,2.76374 -7.34897,3.25494 -0.005,0.49067 0.89903,3.03473 2.00652,5.6529 7.79883,18.43794 25.90309,33.08602 47.52712,38.45558 9.49668,2.35799 24.30137,2.312 33.72223,-0.10625 6.57205,-1.68661 6.78692,-1.69495 7.75804,-0.32511 10.43691,14.72017 16.80514,19.4674 29.87568,22.2704 5.99592,1.28615 20.59885,0.29138 29.39322,-2.00207 4.10105,-1.06959 7.69828,-2.09488 7.99392,-2.27746 0.29479,-0.18229 3.65863,2.03651 7.47493,4.93042 19.58871,14.8511 35.35493,19.59733 52.96809,15.94313 7.70896,-1.59897 18.69691,-6.28803 25.16663,-10.73912 5.49478,-3.78045 6.01627,-3.01967 5.77661,8.42964 -0.43692,20.86079 -3.91751,54.84124 -6.4937,63.40225 l -1.03779,3.4466 3.50223,1.90484 c 6.28177,3.41872 20.60037,6.88683 34.373,8.325 5.87135,0.61265 31.02021,-0.27528 39.19466,-1.38413 11.22245,-1.52208 21.77521,-3.43777 22.95341,-4.16587 0.76299,-0.47176 0.39434,-2.90217 -1.73392,-11.42719 -4.43174,-17.75064 -11.04401,-52.83009 -11.04401,-58.58988 0,-1.37704 0.61377,-1.22033 7.14736,1.83286 17.80923,8.32232 35.07546,10.35113 50.21314,5.89886 9.43613,-2.77526 23.42214,-11.89769 29.54882,-19.27341 l 2.56183,-3.084 8.03771,3.14319 c 11.22335,4.38784 18.42425,6.11411 27.61181,6.617 13.19159,0.72208 23.40428,-2.15611 34.92501,-9.84135 6.62344,-4.41815 15.82023,-13.27635 21.01793,-20.24449 1.9506,-2.61536 3.67211,-4.21414 4.35589,-4.04437 0.6222,0.15452 4.18324,1.20221 7.91428,2.32882 8.97343,2.71018 22.47923,3.43572 29.77272,1.59904 8.34976,-2.10269 14.08222,-5.46612 20.72807,-12.16297 5.9577,-6.00336 7.64476,-8.53852 19.01979,-28.58327 l 3.82798,-6.74519 -12.5548,-3.17429 c -19.56841,-4.94728 -33.95688,-10.34627 -52.12554,-19.55876 -13.19187,-6.68882 -27.71022,-15.57391 -39.08854,-23.92089 l -4.03965,-2.96325 6.67768,-3.2111 c 3.67291,-1.76586 9.20665,-5.00787 12.29822,-7.20437 5.20852,-3.70059 25.26159,-22.47599 24.65417,-23.08342 -0.14815,-0.14816 -5.49444,-1.58771 -11.87999,-3.19881 -14.91687,-3.76434 -23.81946,-7.07192 -38.7458,-14.39752 -12.19956,-5.98787 -25.70942,-14.34536 -36.63705,-22.66376 -5.41409,-4.12145 -6.70682,-5.95475 -4.20905,-5.97403 0.49367,-0.005 4.49546,-1.47651 8.89166,-3.2727 9.31083,-3.80405 18.8393,-9.11432 27.68696,-15.42947 6.31601,-4.50888 22.73423,-18.6912 22.73423,-19.6386 0,-0.27922 -2.96799,-1.11285 -6.59498,-1.85208 -27.8011,-5.66555 -60.78624,-23.41707 -84.76513,-45.61738 -4.83107,-4.4728 -4.79299,-4.83385 0.60943,-5.65268 4.9017,-0.7431 14.41585,-4.16024 21.7838,-7.82313 12.64313,-6.28607 32.87824,-17.74797 32.26636,-18.27819 -0.33475,-0.29016 -4.17099,-1.30862 -8.52365,-2.26256 -28.28301,-6.20105 -51.5021,-19.80492 -76.50449,-44.82245 l -12.05991,-12.06747 3.01499,-0.52259 c 1.6579,-0.2874 5.72813,-0.91384 9.04492,-1.39078 8.66015,-1.24636 20.49826,-5.39896 30.71193,-10.77334 4.87246,-2.56459 8.85944,-4.88638 8.85944,-5.15977 0,-0.27361 -2.62906,-1.05567 -5.84172,-1.73721 -15.19068,-3.22279 -28.09264,-8.81128 -40.21598,-17.42012 -7.13332,-5.06513 -22.42531,-19.91215 -28.69948,-27.86507 -9.36729,-11.87225 -19.98633,-28.62161 -27.04474,-42.66099 l -2.98439,-5.9375 h 2.26847 c 1.32137,0 2.26424,-0.39332 2.25583,-0.94205 -0.0102,-0.51826 -1.1518,-7.7255 -2.54102,-16.01696 -1.38926,-8.29108 -2.46141,-15.15457 -2.38204,-15.25263 0.0808,-0.0987 3.85118,1.79957 8.38261,4.21772 4.53069,2.41782 8.38,4.2784 8.55277,4.13498 0.17339,-0.14318 -1.01135,-8.08043 -2.6323,-17.63757 l -2.94687,-17.37584 12.63073,-12.51013 c 6.94709,-6.88043 12.52418,-12.61715 12.3941,-12.74758 -0.1303,-0.13029 -7.34341,-1.27311 -16.02866,-2.54101 -8.68525,-1.26729 -16.50024,-2.45834 -17.36553,-2.647 -1.18956,-0.2593 -3.47981,-4.21009 -9.3836,-16.18751 -4.29511,-8.71468 -8.02496,-15.84617 -8.28821,-15.84617 z"
       sodipodi:nodetypes="scsssccccsscsccsccccscccssccsscscccsccssccccccscccsccccccccssssccsssscssscsssccssccscscscsccscccsccscccccscscsccccccscs"
       inkscape:label="path997" />
  </g>
</svg>
